<svg width="22" height="22" viewBox="0 0 22 22" fill="none" xmlns="http://www.w3.org/2000/svg">
    <g clip-path="url(#clip0_1259_3343)">
        <path d="M9.55566 18.4883L2.7002 11.791C2.47168 11.5625 2.34863 11.2988 2.34863 11C2.34863 10.7012 2.47168 10.4287 2.70898 10.209L9.55566 3.51172C9.74902 3.31836 9.98633 3.22168 10.2676 3.22168C10.8477 3.22168 11.2959 3.66992 11.2959 4.23242C11.2959 4.51367 11.1816 4.77734 10.9795 4.9707L4.80078 11L10.9795 17.0293C11.1729 17.2314 11.2959 17.4863 11.2959 17.7676C11.2959 18.3389 10.8477 18.7871 10.2676 18.7871C9.98633 18.7871 9.74902 18.6816 9.55566 18.4883Z" fill="#7A7A7A"/>
    </g>
    <defs>
        <clipPath id="clip0_1259_3343">
            <rect width="22" height="22" fill="white" transform="matrix(0 -1 1 0 0 22)"/>
        </clipPath>
    </defs>
</svg>
