<svg width="22" height="22" viewBox="0 0 22 22" fill="none" xmlns="http://www.w3.org/2000/svg">
<path d="M11.0002 7.5626C10.3203 7.5626 9.65574 7.76421 9.09044 8.14193C8.52515 8.51964 8.08455 9.05651 7.82438 9.68463C7.5642 10.3127 7.49613 11.0039 7.62876 11.6707C7.7614 12.3375 8.08879 12.95 8.56953 13.4308C9.05028 13.9115 9.66278 14.2389 10.3296 14.3716C10.9964 14.5042 11.6876 14.4361 12.3157 14.1759C12.9438 13.9158 13.4807 13.4752 13.8584 12.9099C14.2361 12.3446 14.4377 11.68 14.4377 11.0001C14.4377 10.0884 14.0756 9.21408 13.4309 8.56942C12.7862 7.92477 11.9119 7.5626 11.0002 7.5626ZM11.0002 13.0626C10.5923 13.0626 10.1935 12.9416 9.85435 12.715C9.51517 12.4884 9.25082 12.1663 9.09471 11.7894C8.93861 11.4125 8.89776 10.9978 8.97734 10.5977C9.05693 10.1976 9.25336 9.83014 9.54181 9.54169C9.83025 9.25325 10.1978 9.05681 10.5978 8.97723C10.9979 8.89765 11.4126 8.93849 11.7895 9.0946C12.1664 9.25071 12.4885 9.51506 12.7151 9.85424C12.9418 10.1934 13.0627 10.5922 13.0627 11.0001C13.0627 11.5471 12.8454 12.0717 12.4586 12.4585C12.0718 12.8453 11.5472 13.0626 11.0002 13.0626ZM17.3347 13.6762C17.0393 14.3745 16.6304 15.0191 16.1247 15.584C16.0022 15.7165 15.8325 15.7956 15.6523 15.8041C15.4721 15.8127 15.2957 15.75 15.1612 15.6296C15.0268 15.5093 14.945 15.3409 14.9336 15.1608C14.9222 14.9807 14.9821 14.8034 15.1003 14.6671C16.003 13.6591 16.5022 12.3536 16.5022 11.0005C16.5022 9.64745 16.003 8.34193 15.1003 7.33401C15.0384 7.26703 14.9904 7.1884 14.9592 7.10271C14.928 7.01701 14.9141 6.92596 14.9185 6.83486C14.9228 6.74376 14.9452 6.65443 14.9844 6.57207C15.0235 6.48971 15.0787 6.41596 15.1467 6.35514C15.2146 6.29431 15.294 6.24761 15.3802 6.21776C15.4664 6.1879 15.5576 6.1755 15.6486 6.18126C15.7397 6.18702 15.8286 6.21084 15.9103 6.25132C15.9921 6.2918 16.0649 6.34814 16.1247 6.41705C16.9928 7.38844 17.5673 8.58627 17.7815 9.8713C17.9957 11.1563 17.8407 12.4758 17.3347 13.6762ZM5.9299 8.8594C5.52426 9.81964 5.39985 10.8754 5.57117 11.9036C5.74249 12.9318 6.20249 13.8902 6.89756 14.6671C7.01575 14.8034 7.07561 14.9807 7.06421 15.1608C7.05281 15.3409 6.97106 15.5093 6.83662 15.6296C6.70217 15.75 6.52579 15.8127 6.34555 15.8041C6.16531 15.7956 5.99565 15.7165 5.87318 15.584C4.74447 14.3241 4.12032 12.6921 4.12032 11.0005C4.12032 9.30899 4.74447 7.67694 5.87318 6.41705C5.99478 6.28087 6.16549 6.19857 6.34777 6.18826C6.53004 6.17794 6.70895 6.24046 6.84514 6.36205C6.98132 6.48365 7.06362 6.65436 7.07393 6.83664C7.08425 7.01892 7.02173 7.19783 6.90014 7.33401C6.49451 7.78525 6.16664 8.30073 5.9299 8.8594ZM21.3127 11.0001C21.3169 13.7 20.2583 16.2931 18.3659 18.2189C18.3033 18.2858 18.2279 18.3395 18.1443 18.3769C18.0606 18.4143 17.9703 18.4346 17.8786 18.4366C17.787 18.4385 17.6959 18.4222 17.6107 18.3884C17.5255 18.3547 17.4479 18.3042 17.3824 18.2401C17.317 18.1759 17.265 18.0993 17.2297 18.0147C17.1943 17.9302 17.1761 17.8394 17.1763 17.7478C17.1765 17.6561 17.195 17.5654 17.2308 17.481C17.2665 17.3966 17.3188 17.3203 17.3845 17.2564C19.0231 15.5869 19.9411 13.3411 19.9411 11.0018C19.9411 8.66257 19.0231 6.41674 17.3845 4.74729C17.2564 4.61715 17.1853 4.44145 17.1867 4.25885C17.1882 4.07625 17.2621 3.90171 17.3922 3.77362C17.5224 3.64553 17.6981 3.57438 17.8807 3.57583C18.0633 3.57728 18.2378 3.65121 18.3659 3.78135C20.2583 5.70706 21.3169 8.30017 21.3127 11.0001ZM4.61592 17.2546C4.67923 17.3191 4.72923 17.3954 4.76306 17.4791C4.79689 17.5629 4.81389 17.6525 4.8131 17.7428C4.8123 17.8332 4.79372 17.9224 4.75841 18.0056C4.7231 18.0887 4.67176 18.1641 4.60732 18.2274C4.54288 18.2908 4.4666 18.3408 4.38284 18.3746C4.29908 18.4084 4.20947 18.4254 4.11914 18.4246C4.0288 18.4238 3.93951 18.4052 3.85636 18.3699C3.77321 18.3346 3.69782 18.2833 3.63451 18.2189C1.74233 16.2925 0.682129 13.7003 0.682129 11.0001C0.682129 8.29991 1.74233 5.70766 3.63451 3.78135C3.69712 3.71441 3.77248 3.66067 3.85616 3.62328C3.93984 3.58589 4.03016 3.56561 4.12179 3.56364C4.21342 3.56166 4.30452 3.57803 4.38974 3.61177C4.47496 3.64552 4.55256 3.69596 4.618 3.76014C4.68344 3.82431 4.73538 3.90092 4.77078 3.98547C4.80617 4.07001 4.82431 4.16078 4.82411 4.25243C4.82392 4.34409 4.8054 4.43478 4.76965 4.51917C4.73389 4.60356 4.68162 4.67995 4.61592 4.74385C2.97732 6.41331 2.05931 8.65913 2.05931 10.9984C2.05931 13.3376 2.97732 15.5835 4.61592 17.2529V17.2546Z" fill="#7A7A7A"/>
</svg>
