<svg width="18" height="16" viewBox="0 0 18 16" fill="none" xmlns="http://www.w3.org/2000/svg">
<path d="M15.8548 0H7.08065V2.74914H8.17742V1.09966H15.8548C16.1839 1.09966 16.4032 1.31959 16.4032 1.64948V7.6976C16.4032 8.02749 16.1839 8.24742 15.8548 8.24742H8.72581V12.0962H5.81936L3.79032 13.6907V12.0962H2.14516C1.81613 12.0962 1.59677 11.8763 1.59677 11.5464V5.49828C1.59677 5.16839 1.81613 4.94845 2.14516 4.94845H9.27419V3.8488H2.14516C1.2129 3.8488 0.5 4.56357 0.5 5.49828V11.5464C0.5 12.4811 1.2129 13.1959 2.14516 13.1959H2.69355V16L6.14839 13.1959H9.82258V9.34708H15.8548C16.7871 9.34708 17.5 8.6323 17.5 7.6976V1.64948C17.5 0.714777 16.7871 0 15.8548 0Z" fill="#554585"/>
<path d="M2.80273 10.9413H4.11886L4.4479 10.0616H6.1479L6.47693 10.9413H7.79306L5.92854 6.04785H4.61241L2.80273 10.9413ZM5.27048 7.42242L5.81886 9.12689H4.72209L5.27048 7.42242Z" fill="#554585"/>
<path d="M10.3711 7.6985C10.9743 7.6985 11.7969 7.53355 12.5646 7.14867C13.3324 7.53355 14.2098 7.6985 14.7582 7.6985V6.59885C14.7582 6.59885 14.2098 6.59885 13.6066 6.37891C14.2646 5.71912 14.7582 4.72943 14.7582 3.29988V2.75005H13.113V1.65039H12.0163V2.75005H10.3711V3.8497H13.6066C13.4969 4.83939 13.0582 5.44421 12.5646 5.82909C12.2356 5.55417 11.9066 5.16929 11.6872 4.67445H10.5356C10.755 5.38922 11.084 5.93905 11.5227 6.37891C10.9743 6.59885 10.4808 6.59885 10.3711 6.59885V7.6985Z" fill="#554585"/>
</svg>
