<svg width="23" height="22" viewBox="0 0 23 22" fill="none" xmlns="http://www.w3.org/2000/svg">
<path d="M11.5 0.649902C5.175 0.649902 0 4.7669 0 9.8499C0.0290334 11.072 0.327549 12.2726 0.874229 13.3659C1.42091 14.4593 2.20227 15.4184 3.1625 16.1749C3.1625 16.8649 2.6795 18.6704 0 21.3499C2.7255 21.2234 5.336 20.1999 7.4405 18.4749C8.7515 18.8544 10.1315 19.0499 11.5 19.0499C17.825 19.0499 23 14.9329 23 9.8499C23 4.7669 17.825 0.649902 11.5 0.649902ZM11.5 16.7499C6.417 16.7499 2.3 13.6564 2.3 9.8499C2.3 6.0434 6.417 2.9499 11.5 2.9499C16.583 2.9499 20.7 6.0434 20.7 9.8499C20.7 13.6564 16.583 16.7499 11.5 16.7499Z" fill="white"/>
</svg>
