<svg width="17" height="19" viewBox="0 0 17 19" fill="none" xmlns="http://www.w3.org/2000/svg">
    <path d="M4.44531 0.03125C6.64062 0.03125 8.46875 1.75781 8.57031 3.96875C8.57812 4.07031 8.58594 4.16406 8.57812 4.23438C8.55469 4.5625 8.28125 4.78125 7.95312 4.78125C7.64844 4.78125 7.40625 4.58594 7.375 4.21875C7.375 4.14844 7.36719 4.10156 7.36719 4.05469C7.30469 2.49219 6.01562 1.25 4.44531 1.25C2.8125 1.25 1.49219 2.57031 1.49219 4.19531C1.49219 4.89062 1.73438 5.54688 2.14062 6.04688C2.5 6.50781 2.13281 7.03906 1.67188 7.03906C1.48438 7.03906 1.28906 6.96094 1.14062 6.75C0.601562 6.05469 0.273438 5.13281 0.273438 4.19531C0.273438 1.89844 2.14062 0.03125 4.44531 0.03125ZM11.8984 17.7891C9.21094 18.7656 6.78125 18.0078 4.74219 15.5547L2.09375 12.3594C1.90625 12.125 1.74219 11.8359 1.65625 11.5859C1.33594 10.7188 1.8125 9.96094 2.60938 9.67188C3.14062 9.47656 3.69531 9.60938 4.16406 10.0547L4.92969 10.8906C4.95312 10.9141 4.98438 10.9219 5.00781 10.9141C5.04688 10.8984 5.05469 10.8672 5.03906 10.8281L2.91406 5C2.54688 3.99219 2.97656 3.07812 3.94531 2.72656C4.89062 2.38281 5.79688 2.80469 6.16406 3.8125L6.97656 6.03906C7.10156 5.9375 7.24219 5.86719 7.38281 5.8125C8.03906 5.57031 8.67188 5.75781 9.10156 6.28125C9.27344 6.14844 9.46094 6.03906 9.67188 5.96094C10.3047 5.72656 10.9141 5.89062 11.3047 6.36719C12.7344 5.88281 13.9531 6.61719 14.5859 8.35156L15.2266 10.1016C16.5234 13.6719 15.1797 16.5938 11.8984 17.7891ZM11.4922 16.5312C14.1016 15.5781 15.0703 13.3359 14 10.4062L13.4297 8.84375C13.0547 7.80469 12.5078 7.33594 11.9141 7.55469L12.1875 8.29688C12.2969 8.60156 12.125 8.91406 11.8438 9.01562C11.5547 9.11719 11.2266 8.99219 11.1172 8.6875L10.6953 7.53125C10.5703 7.19531 10.2969 7.05469 9.96875 7.17188C9.83594 7.21875 9.70312 7.30469 9.60156 7.39844L10.0938 8.74219C10.2031 9.03906 10.0312 9.34375 9.75781 9.44531C9.46875 9.55469 9.14062 9.42969 9.03125 9.125L8.39844 7.39062C8.27344 7.04688 8 6.90625 7.67188 7.02344C7.54688 7.07031 7.40625 7.16406 7.30469 7.25781L8.00781 9.16406C8.10938 9.46094 7.95312 9.77344 7.66406 9.88281C7.375 9.98438 7.04688 9.85156 6.9375 9.55469L4.97656 4.16406C4.875 3.88281 4.61719 3.75781 4.34375 3.85156C4.07031 3.95312 3.95312 4.21875 4.05469 4.5L6.84375 12.1641C6.98438 12.5547 6.82031 12.9141 6.47656 13.0391C6.20312 13.1406 5.90625 13.1016 5.59375 12.7891L3.73438 10.9219C3.5625 10.7344 3.38281 10.6562 3.16406 10.7344C2.89844 10.8359 2.80469 11.0859 2.88281 11.3125C2.92188 11.4219 2.97656 11.5 3.04688 11.5859L5.71875 14.7344C7.50781 16.8594 9.41406 17.2812 11.4922 16.5312Z" fill="#7A7A7A"/>
</svg>
