<svg width="159" height="155" viewBox="0 0 159 155" fill="none" xmlns="http://www.w3.org/2000/svg">
    <circle cx="75" cy="80" r="75" fill="#FFD12E"/>
    <g filter="url(#filter0_i_1259_3349)">
        <circle cx="75" cy="80" r="60" fill="#ECB800"/>
    </g>
    <g filter="url(#filter1_i_1259_3349)">
        <path fill-rule="evenodd" clip-rule="evenodd" d="M75 155C116.421 155 150 121.421 150 80C150 38.5786 116.421 5 75 5C33.5786 5 0 38.5786 0 80C0 121.421 33.5786 155 75 155ZM135 80C135 113.137 108.137 140 75 140C41.8629 140 15 113.137 15 80C15 46.8629 41.8629 20 75 20C108.137 20 135 46.8629 135 80Z" fill="#FFD12E"/>
    </g>
    <path d="M21 0L23.0789 20.7231L42 23L23.0789 25.2769L21 46L18.9211 25.2769L0 23L18.9211 20.7231L21 0Z" fill="#FFF9C4"/>
    <path d="M13 28L13.792 36.109L21 37L13.792 37.891L13 46L12.208 37.891L5 37L12.208 36.109L13 28Z" fill="#FFF9C4"/>
    <path d="M147 100L148.273 111.621L159 113L148.273 114.379L147 126L145.727 114.379L135 113L145.727 111.621L147 100Z" fill="#FFF9C4"/>
    <mask id="path-7-outside-1_1259_3349" maskUnits="userSpaceOnUse" x="35" y="71" width="79" height="21" fill="black">
        <rect fill="white" x="35" y="71" width="79" height="21"/>
        <path d="M45.002 87H43.2441V80.9355L38.2441 72.9082H40.2461L44.0938 79.2363H44.1523L48 72.9082H50.002L45.002 80.9355V87ZM51.7031 87.1758C48.8906 87.1758 46.9961 85.1543 46.9961 81.9219C46.9961 78.6797 48.8906 76.668 51.7031 76.668C54.5059 76.668 56.4004 78.6797 56.4004 81.9219C56.4004 85.1543 54.5059 87.1758 51.7031 87.1758ZM51.7031 85.6816C53.5 85.6816 54.6719 84.3145 54.6719 81.9219C54.6719 79.5293 53.5 78.1621 51.7031 78.1621C49.9062 78.1621 48.7246 79.5293 48.7246 81.9219C48.7246 84.3145 49.9062 85.6816 51.7031 85.6816ZM64.459 76.8438V87H62.8477V85.3496H62.8086C62.2031 86.5215 61.1484 87.1758 59.5859 87.1758C57.3691 87.1758 56.0703 85.7402 56.0703 83.4355V76.8438H57.7695V83.1328C57.7695 84.7832 58.541 85.6719 60.1133 85.6719C61.7637 85.6719 62.7598 84.5391 62.7598 82.8105V76.8438H64.459ZM64.666 87V76.8438H66.2676V78.5039H66.3066C66.6387 77.3809 67.5762 76.668 68.7676 76.668C69.0605 76.668 69.3145 76.7168 69.4512 76.7363V78.3867C69.3145 78.3379 68.9531 78.2891 68.543 78.2891C67.2246 78.2891 66.3652 79.2363 66.3652 80.6719V87H64.666ZM68.4277 83.123H70.1953C70.3613 84.6465 71.8066 85.6523 73.8184 85.6523C75.7227 85.6523 77.1094 84.6465 77.1094 83.2598C77.1094 82.0684 76.2793 81.3359 74.3848 80.8477L72.5781 80.3789C69.9805 79.7148 68.8281 78.5723 68.8281 76.6582C68.8281 74.3145 70.8789 72.6738 73.8086 72.6738C76.6113 72.6738 78.6426 74.334 78.7207 76.6973H76.9629C76.8066 75.1836 75.5859 74.2559 73.75 74.2559C71.9238 74.2559 70.6543 75.2031 70.6543 76.5801C70.6543 77.6445 71.4355 78.2793 73.3496 78.7773L74.8242 79.168C77.7441 79.9004 78.9258 81.0234 78.9258 83.0449C78.9258 85.623 76.8945 87.2344 73.6523 87.2344C70.6641 87.2344 68.5938 85.6133 68.4277 83.123ZM83.6445 76.668C86.2324 76.668 87.9902 78.7383 87.9902 81.9219C87.9902 85.1055 86.2422 87.1758 83.6836 87.1758C82.2285 87.1758 81.0566 86.4629 80.4512 85.3496H80.4121V90.3887H78.7129V76.8438H80.3242V78.5625H80.3633C80.9883 77.4199 82.1699 76.668 83.6445 76.668ZM83.3125 85.6816C85.1191 85.6816 86.252 84.2266 86.252 81.9219C86.252 79.627 85.1191 78.1621 83.3125 78.1621C81.5742 78.1621 80.4023 79.666 80.4023 81.9219C80.4023 84.1875 81.5742 85.6816 83.3125 85.6816ZM91.918 87.1758C89.1055 87.1758 87.2109 85.1543 87.2109 81.9219C87.2109 78.6797 89.1055 76.668 91.918 76.668C94.7207 76.668 96.6152 78.6797 96.6152 81.9219C96.6152 85.1543 94.7207 87.1758 91.918 87.1758ZM91.918 85.6816C93.7148 85.6816 94.8867 84.3145 94.8867 81.9219C94.8867 79.5293 93.7148 78.1621 91.918 78.1621C90.1211 78.1621 88.9395 79.5293 88.9395 81.9219C88.9395 84.3145 90.1211 85.6816 91.918 85.6816ZM96.334 87V76.8438H97.9355V78.5039H97.9746C98.3066 77.3809 99.2441 76.668 100.436 76.668C100.729 76.668 100.982 76.7168 101.119 76.7363V78.3867C100.982 78.3379 100.621 78.2891 100.211 78.2891C98.8926 78.2891 98.0332 79.2363 98.0332 80.6719V87H96.334ZM101.053 74.3926H102.752V76.8438H104.725V78.2402H102.752V84.2754C102.752 85.2031 103.143 85.623 104.012 85.623C104.207 85.623 104.598 85.5938 104.715 85.5742V87C104.51 87.0488 104.041 87.0781 103.641 87.0781C101.775 87.0781 101.053 86.3164 101.053 84.3633V78.2402H99.5391V76.8438H101.053V74.3926ZM104.326 87V85.7891L109.951 78.2695V78.2402H104.336V76.8438H111.875V78.084L106.289 85.5742V85.6035H111.904V87H104.326Z"/>
    </mask>
    <path d="M45.002 87H43.2441V80.9355L38.2441 72.9082H40.2461L44.0938 79.2363H44.1523L48 72.9082H50.002L45.002 80.9355V87ZM51.7031 87.1758C48.8906 87.1758 46.9961 85.1543 46.9961 81.9219C46.9961 78.6797 48.8906 76.668 51.7031 76.668C54.5059 76.668 56.4004 78.6797 56.4004 81.9219C56.4004 85.1543 54.5059 87.1758 51.7031 87.1758ZM51.7031 85.6816C53.5 85.6816 54.6719 84.3145 54.6719 81.9219C54.6719 79.5293 53.5 78.1621 51.7031 78.1621C49.9062 78.1621 48.7246 79.5293 48.7246 81.9219C48.7246 84.3145 49.9062 85.6816 51.7031 85.6816ZM64.459 76.8438V87H62.8477V85.3496H62.8086C62.2031 86.5215 61.1484 87.1758 59.5859 87.1758C57.3691 87.1758 56.0703 85.7402 56.0703 83.4355V76.8438H57.7695V83.1328C57.7695 84.7832 58.541 85.6719 60.1133 85.6719C61.7637 85.6719 62.7598 84.5391 62.7598 82.8105V76.8438H64.459ZM64.666 87V76.8438H66.2676V78.5039H66.3066C66.6387 77.3809 67.5762 76.668 68.7676 76.668C69.0605 76.668 69.3145 76.7168 69.4512 76.7363V78.3867C69.3145 78.3379 68.9531 78.2891 68.543 78.2891C67.2246 78.2891 66.3652 79.2363 66.3652 80.6719V87H64.666ZM68.4277 83.123H70.1953C70.3613 84.6465 71.8066 85.6523 73.8184 85.6523C75.7227 85.6523 77.1094 84.6465 77.1094 83.2598C77.1094 82.0684 76.2793 81.3359 74.3848 80.8477L72.5781 80.3789C69.9805 79.7148 68.8281 78.5723 68.8281 76.6582C68.8281 74.3145 70.8789 72.6738 73.8086 72.6738C76.6113 72.6738 78.6426 74.334 78.7207 76.6973H76.9629C76.8066 75.1836 75.5859 74.2559 73.75 74.2559C71.9238 74.2559 70.6543 75.2031 70.6543 76.5801C70.6543 77.6445 71.4355 78.2793 73.3496 78.7773L74.8242 79.168C77.7441 79.9004 78.9258 81.0234 78.9258 83.0449C78.9258 85.623 76.8945 87.2344 73.6523 87.2344C70.6641 87.2344 68.5938 85.6133 68.4277 83.123ZM83.6445 76.668C86.2324 76.668 87.9902 78.7383 87.9902 81.9219C87.9902 85.1055 86.2422 87.1758 83.6836 87.1758C82.2285 87.1758 81.0566 86.4629 80.4512 85.3496H80.4121V90.3887H78.7129V76.8438H80.3242V78.5625H80.3633C80.9883 77.4199 82.1699 76.668 83.6445 76.668ZM83.3125 85.6816C85.1191 85.6816 86.252 84.2266 86.252 81.9219C86.252 79.627 85.1191 78.1621 83.3125 78.1621C81.5742 78.1621 80.4023 79.666 80.4023 81.9219C80.4023 84.1875 81.5742 85.6816 83.3125 85.6816ZM91.918 87.1758C89.1055 87.1758 87.2109 85.1543 87.2109 81.9219C87.2109 78.6797 89.1055 76.668 91.918 76.668C94.7207 76.668 96.6152 78.6797 96.6152 81.9219C96.6152 85.1543 94.7207 87.1758 91.918 87.1758ZM91.918 85.6816C93.7148 85.6816 94.8867 84.3145 94.8867 81.9219C94.8867 79.5293 93.7148 78.1621 91.918 78.1621C90.1211 78.1621 88.9395 79.5293 88.9395 81.9219C88.9395 84.3145 90.1211 85.6816 91.918 85.6816ZM96.334 87V76.8438H97.9355V78.5039H97.9746C98.3066 77.3809 99.2441 76.668 100.436 76.668C100.729 76.668 100.982 76.7168 101.119 76.7363V78.3867C100.982 78.3379 100.621 78.2891 100.211 78.2891C98.8926 78.2891 98.0332 79.2363 98.0332 80.6719V87H96.334ZM101.053 74.3926H102.752V76.8438H104.725V78.2402H102.752V84.2754C102.752 85.2031 103.143 85.623 104.012 85.623C104.207 85.623 104.598 85.5938 104.715 85.5742V87C104.51 87.0488 104.041 87.0781 103.641 87.0781C101.775 87.0781 101.053 86.3164 101.053 84.3633V78.2402H99.5391V76.8438H101.053V74.3926ZM104.326 87V85.7891L109.951 78.2695V78.2402H104.336V76.8438H111.875V78.084L106.289 85.5742V85.6035H111.904V87H104.326Z" fill="url(#paint0_linear_1259_3349)"/>
    <path d="M45.002 87V88.5H46.502V87H45.002ZM43.2441 87H41.7441V88.5H43.2441V87ZM43.2441 80.9355H44.7441V80.5066L44.5174 80.1425L43.2441 80.9355ZM38.2441 72.9082V71.4082H35.5427L36.9709 73.7013L38.2441 72.9082ZM40.2461 72.9082L41.5278 72.1289L41.0896 71.4082H40.2461V72.9082ZM44.0938 79.2363L42.8121 80.0156L43.2503 80.7363H44.0938V79.2363ZM44.1523 79.2363V80.7363H44.9958L45.434 80.0156L44.1523 79.2363ZM48 72.9082V71.4082H47.1565L46.7183 72.1289L48 72.9082ZM50.002 72.9082L51.2752 73.7013L52.7034 71.4082H50.002V72.9082ZM45.002 80.9355L43.7287 80.1425L43.502 80.5066V80.9355H45.002ZM45.002 85.5H43.2441V88.5H45.002V85.5ZM44.7441 87V80.9355H41.7441V87H44.7441ZM44.5174 80.1425L39.5174 72.1152L36.9709 73.7013L41.9709 81.7286L44.5174 80.1425ZM38.2441 74.4082H40.2461V71.4082H38.2441V74.4082ZM38.9644 73.6875L42.8121 80.0156L45.3754 78.457L41.5278 72.1289L38.9644 73.6875ZM44.0938 80.7363H44.1523V77.7363H44.0938V80.7363ZM45.434 80.0156L49.2817 73.6875L46.7183 72.1289L42.8707 78.457L45.434 80.0156ZM48 74.4082H50.002V71.4082H48V74.4082ZM48.7287 72.1152L43.7287 80.1425L46.2752 81.7286L51.2752 73.7013L48.7287 72.1152ZM43.502 80.9355V87H46.502V80.9355H43.502ZM51.7031 85.6758C50.6744 85.6758 49.9174 85.3169 49.4058 84.753C48.8819 84.1757 48.4961 83.2488 48.4961 81.9219H45.4961C45.4961 83.8274 46.0575 85.5275 47.1841 86.769C48.3228 88.0239 49.9193 88.6758 51.7031 88.6758V85.6758ZM48.4961 81.9219C48.4961 80.5891 48.8824 79.6631 49.4051 79.0878C49.9156 78.5259 50.6723 78.168 51.7031 78.168V75.168C49.9215 75.168 48.3246 75.8159 47.1847 77.0704C46.057 78.3115 45.4961 80.0125 45.4961 81.9219H48.4961ZM51.7031 78.168C52.7276 78.168 53.4819 78.5249 53.9919 79.087C54.514 79.6626 54.9004 80.5891 54.9004 81.9219H57.9004C57.9004 80.0125 57.3395 78.3121 56.2137 77.0712C55.0757 75.8169 53.4814 75.168 51.7031 75.168V78.168ZM54.9004 81.9219C54.9004 83.2488 54.5146 84.1762 53.9912 84.7538C53.4801 85.3179 52.7254 85.6758 51.7031 85.6758V88.6758C53.4835 88.6758 55.0775 88.0229 56.2144 86.7681C57.339 85.5269 57.9004 83.8273 57.9004 81.9219H54.9004ZM51.7031 87.1816C53.0157 87.1816 54.2022 86.6643 55.0283 85.6414C55.8245 84.6555 56.1719 83.345 56.1719 81.9219H53.1719C53.1719 82.8913 52.9333 83.4607 52.6944 83.7565C52.4853 84.0154 52.1875 84.1816 51.7031 84.1816V87.1816ZM56.1719 81.9219C56.1719 80.4988 55.8245 79.1882 55.0283 78.2023C54.2022 77.1795 53.0157 76.6621 51.7031 76.6621V79.6621C52.1875 79.6621 52.4853 79.8283 52.6944 80.0872C52.9333 80.3831 53.1719 80.9524 53.1719 81.9219H56.1719ZM51.7031 76.6621C50.3913 76.6621 49.2036 77.1788 48.3753 78.1996C47.5758 79.1849 47.2246 80.496 47.2246 81.9219H50.2246C50.2246 80.9552 50.4643 80.3864 50.7048 80.0899C50.9165 79.829 51.2181 79.6621 51.7031 79.6621V76.6621ZM47.2246 81.9219C47.2246 83.3478 47.5758 84.6588 48.3753 85.6441C49.2036 86.665 50.3913 87.1816 51.7031 87.1816V84.1816C51.2181 84.1816 50.9165 84.0147 50.7048 83.7538C50.4643 83.4574 50.2246 82.8886 50.2246 81.9219H47.2246ZM64.459 76.8438H65.959V75.3438H64.459V76.8438ZM64.459 87V88.5H65.959V87H64.459ZM62.8477 87H61.3477V88.5H62.8477V87ZM62.8477 85.3496H64.3477V83.8496H62.8477V85.3496ZM62.8086 85.3496V83.8496H61.8952L61.476 84.6611L62.8086 85.3496ZM56.0703 76.8438V75.3438H54.5703V76.8438H56.0703ZM57.7695 76.8438H59.2695V75.3438H57.7695V76.8438ZM62.7598 76.8438V75.3438H61.2598V76.8438H62.7598ZM62.959 76.8438V87H65.959V76.8438H62.959ZM64.459 85.5H62.8477V88.5H64.459V85.5ZM64.3477 87V85.3496H61.3477V87H64.3477ZM62.8477 83.8496H62.8086V86.8496H62.8477V83.8496ZM61.476 84.6611C61.2884 85.024 61.0621 85.2547 60.8037 85.4046C60.5396 85.5577 60.1561 85.6758 59.5859 85.6758V88.6758C60.5782 88.6758 61.5033 88.4667 62.3086 87.9997C63.1195 87.5295 63.7233 86.8471 64.1412 86.0381L61.476 84.6611ZM59.5859 85.6758C58.8127 85.6758 58.3621 85.4353 58.0951 85.1483C57.8149 84.847 57.5703 84.3134 57.5703 83.4355H54.5703C54.5703 84.8624 54.9752 86.1989 55.8985 87.1916C56.8352 88.1985 58.1423 88.6758 59.5859 88.6758V85.6758ZM57.5703 83.4355V76.8438H54.5703V83.4355H57.5703ZM56.0703 78.3438H57.7695V75.3438H56.0703V78.3438ZM56.2695 76.8438V83.1328H59.2695V76.8438H56.2695ZM56.2695 83.1328C56.2695 84.1656 56.5088 85.2236 57.2418 86.0301C57.9984 86.8627 59.0459 87.1719 60.1133 87.1719V84.1719C59.6083 84.1719 59.484 84.0368 59.4619 84.0124C59.416 83.962 59.2695 83.7505 59.2695 83.1328H56.2695ZM60.1133 87.1719C61.2989 87.1719 62.3853 86.7537 63.1637 85.9002C63.927 85.0632 64.2598 83.9565 64.2598 82.8105H61.2598C61.2598 83.3931 61.0945 83.7171 60.9471 83.8786C60.8149 84.0237 60.578 84.1719 60.1133 84.1719V87.1719ZM64.2598 82.8105V76.8438H61.2598V82.8105H64.2598ZM62.7598 78.3438H64.459V75.3438H62.7598V78.3438ZM64.666 87H63.166V88.5H64.666V87ZM64.666 76.8438V75.3438H63.166V76.8438H64.666ZM66.2676 76.8438H67.7676V75.3438H66.2676V76.8438ZM66.2676 78.5039H64.7676V80.0039H66.2676V78.5039ZM66.3066 78.5039V80.0039H67.4273L67.7451 78.9292L66.3066 78.5039ZM69.4512 76.7363H70.9512V75.4354L69.6633 75.2514L69.4512 76.7363ZM69.4512 78.3867L68.9467 79.7993L70.9512 80.5152V78.3867H69.4512ZM66.3652 87V88.5H67.8652V87H66.3652ZM66.166 87V76.8438H63.166V87H66.166ZM64.666 78.3438H66.2676V75.3438H64.666V78.3438ZM64.7676 76.8438V78.5039H67.7676V76.8438H64.7676ZM66.2676 80.0039H66.3066V77.0039H66.2676V80.0039ZM67.7451 78.9292C67.89 78.4391 68.2454 78.168 68.7676 78.168V75.168C66.907 75.168 65.3874 76.3226 64.8682 78.0786L67.7451 78.9292ZM68.7676 78.168C68.9228 78.168 69.0268 78.1909 69.239 78.2213L69.6633 75.2514C69.6021 75.2427 69.1983 75.168 68.7676 75.168V78.168ZM67.9512 76.7363V78.3867H70.9512V76.7363H67.9512ZM69.9557 76.9741C69.7185 76.8894 69.4525 76.8504 69.2715 76.8295C69.0548 76.8045 68.8045 76.7891 68.543 76.7891V79.7891C68.6916 79.7891 68.827 79.7981 68.9277 79.8097C68.9779 79.8155 69.0107 79.8209 69.026 79.8239C69.0334 79.8253 69.0315 79.8251 69.0221 79.8228C69.0146 79.8209 68.9871 79.8138 68.9467 79.7993L69.9557 76.9741ZM68.543 76.7891C67.5057 76.7891 66.5435 77.1726 65.8514 77.9314C65.1718 78.6766 64.8652 79.6581 64.8652 80.6719H67.8652C67.8652 80.2501 67.9884 80.0402 68.068 79.9529C68.1353 79.8792 68.2619 79.7891 68.543 79.7891V76.7891ZM64.8652 80.6719V87H67.8652V80.6719H64.8652ZM66.3652 85.5H64.666V88.5H66.3652V85.5ZM68.4277 83.123V81.623H66.8244L66.9311 83.2228L68.4277 83.123ZM70.1953 83.123L71.6865 82.9605L71.5407 81.623H70.1953V83.123ZM74.3848 80.8477L74.008 82.2996L74.0104 82.3002L74.3848 80.8477ZM72.5781 80.3789L72.9548 78.927L72.9496 78.9256L72.5781 80.3789ZM78.7207 76.6973V78.1973H80.2711L80.2199 76.6477L78.7207 76.6973ZM76.9629 76.6973L75.4708 76.8513L75.6098 78.1973H76.9629V76.6973ZM73.3496 78.7773L73.7337 77.3273L73.7273 77.3257L73.3496 78.7773ZM74.8242 79.168L74.4401 80.618L74.4497 80.6205L74.4593 80.6229L74.8242 79.168ZM68.4277 84.623H70.1953V81.623H68.4277V84.623ZM68.7041 83.2855C68.9861 85.8731 71.3906 87.1523 73.8184 87.1523V84.1523C72.2227 84.1523 71.7365 83.4199 71.6865 82.9605L68.7041 83.2855ZM73.8184 87.1523C75.0202 87.1523 76.1692 86.8365 77.0596 86.1896C77.9704 85.5279 78.6094 84.5056 78.6094 83.2598H75.6094C75.6094 83.4007 75.555 83.5746 75.2963 83.7625C75.0173 83.9652 74.5209 84.1523 73.8184 84.1523V87.1523ZM78.6094 83.2598C78.6094 82.2527 78.2311 81.3563 77.4514 80.6665C76.7453 80.0419 75.7944 79.662 74.7591 79.3951L74.0104 82.3002C74.8696 82.5216 75.2811 82.752 75.4637 82.9135C75.5407 82.9817 75.5661 83.028 75.5774 83.0537C75.5894 83.0809 75.6094 83.1397 75.6094 83.2598H78.6094ZM74.7615 79.3957L72.9548 78.927L72.2014 81.8308L74.008 82.2996L74.7615 79.3957ZM72.9496 78.9256C71.769 78.6238 71.1269 78.2611 70.7854 77.9224C70.4978 77.6371 70.3281 77.2774 70.3281 76.6582H67.3281C67.3281 77.9531 67.7347 79.1217 68.6726 80.0522C69.5567 80.9293 70.7896 81.4699 72.2066 81.8322L72.9496 78.9256ZM70.3281 76.6582C70.3281 75.963 70.617 75.3902 71.1568 74.9584C71.7191 74.5086 72.6133 74.1738 73.8086 74.1738V71.1738C72.0742 71.1738 70.4782 71.6594 69.2827 72.6158C68.0647 73.5902 67.3281 75.0097 67.3281 76.6582H70.3281ZM73.8086 74.1738C76.0426 74.1738 77.1774 75.4127 77.2215 76.7468L80.2199 76.6477C80.1077 73.2553 77.1801 71.1738 73.8086 71.1738V74.1738ZM78.7207 75.1973H76.9629V78.1973H78.7207V75.1973ZM78.455 76.5432C78.3362 75.3926 77.7932 74.398 76.8939 73.7146C76.0183 73.0493 74.9109 72.7559 73.75 72.7559V75.7559C74.4251 75.7559 74.8459 75.9263 75.0788 76.1032C75.2879 76.2621 75.4333 76.4883 75.4708 76.8513L78.455 76.5432ZM73.75 72.7559C72.5926 72.7559 71.4805 73.0547 70.6178 73.7013C69.7262 74.3695 69.1543 75.3806 69.1543 76.5801H72.1543C72.1543 76.4026 72.2172 76.2516 72.4169 76.1019C72.6455 75.9306 73.0812 75.7559 73.75 75.7559V72.7559ZM69.1543 76.5801C69.1543 77.5637 69.5528 78.4154 70.3368 79.0541C71.0267 79.6161 71.9558 79.9646 72.9719 80.229L73.7273 77.3257C72.8293 77.092 72.4108 76.8742 72.2315 76.7281C72.1606 76.6704 72.155 76.6458 72.161 76.6584C72.1671 76.6713 72.1543 76.6574 72.1543 76.5801H69.1543ZM72.9655 80.2273L74.4401 80.618L75.2083 77.718L73.7337 77.3274L72.9655 80.2273ZM74.4593 80.6229C75.8301 80.9668 76.5572 81.3512 76.9389 81.7125C77.2475 82.0045 77.4258 82.368 77.4258 83.0449H80.4258C80.4258 81.7003 80.0133 80.4916 79.001 79.5336C78.062 78.6449 76.7382 78.1016 75.1892 77.713L74.4593 80.6229ZM77.4258 83.0449C77.4258 83.901 77.108 84.5062 76.5721 84.9318C75.998 85.3876 75.0427 85.7344 73.6523 85.7344V88.7344C75.5042 88.7344 77.1856 88.2755 78.4377 87.2811C79.728 86.2565 80.4258 84.7669 80.4258 83.0449H77.4258ZM73.6523 85.7344C72.4213 85.7344 71.5039 85.401 70.9085 84.9331C70.3336 84.4813 69.9793 83.8472 69.9244 83.0233L66.9311 83.2228C67.0421 84.8892 67.8061 86.3106 69.0549 87.292C70.2832 88.2572 71.8951 88.7344 73.6523 88.7344V85.7344ZM80.4512 85.3496L81.7689 84.633L81.3429 83.8496H80.4512V85.3496ZM80.4121 85.3496V83.8496H78.9121V85.3496H80.4121ZM80.4121 90.3887V91.8887H81.9121V90.3887H80.4121ZM78.7129 90.3887H77.2129V91.8887H78.7129V90.3887ZM78.7129 76.8438V75.3438H77.2129V76.8438H78.7129ZM80.3242 76.8438H81.8242V75.3438H80.3242V76.8438ZM80.3242 78.5625H78.8242V80.0625H80.3242V78.5625ZM80.3633 78.5625V80.0625H81.2525L81.6793 79.2824L80.3633 78.5625ZM83.6445 78.168C84.5065 78.168 85.1659 78.4978 85.6355 79.0614C86.125 79.6487 86.4902 80.5963 86.4902 81.9219H89.4902C89.4902 80.0639 88.9766 78.3845 87.9402 77.1408C86.8839 75.8733 85.3705 75.168 83.6445 75.168V78.168ZM86.4902 81.9219C86.4902 83.2494 86.1263 84.199 85.6403 84.787C85.1743 85.3506 84.5251 85.6758 83.6836 85.6758V88.6758C85.4007 88.6758 86.9048 87.9658 87.9525 86.6984C88.9801 85.4553 89.4902 83.7779 89.4902 81.9219H86.4902ZM83.6836 85.6758C82.7466 85.6758 82.0971 85.2364 81.7689 84.633L79.1334 86.0663C80.0162 87.6894 81.7104 88.6758 83.6836 88.6758V85.6758ZM80.4512 83.8496H80.4121V86.8496H80.4512V83.8496ZM78.9121 85.3496V90.3887H81.9121V85.3496H78.9121ZM80.4121 88.8887H78.7129V91.8887H80.4121V88.8887ZM80.2129 90.3887V76.8438H77.2129V90.3887H80.2129ZM78.7129 78.3438H80.3242V75.3438H78.7129V78.3438ZM78.8242 76.8438V78.5625H81.8242V76.8438H78.8242ZM80.3242 80.0625H80.3633V77.0625H80.3242V80.0625ZM81.6793 79.2824C82.0413 78.6205 82.7185 78.168 83.6445 78.168V75.168C81.6213 75.168 79.9353 76.2193 79.0473 77.8426L81.6793 79.2824ZM83.3125 87.1816C84.6608 87.1816 85.8384 86.6182 86.642 85.5892C87.4144 84.6 87.752 83.3015 87.752 81.9219H84.752C84.752 82.8469 84.5231 83.4283 84.2775 83.7428C84.0629 84.0176 83.7708 84.1816 83.3125 84.1816V87.1816ZM87.752 81.9219C87.752 80.5459 87.4138 79.2485 86.6428 78.2593C85.841 77.2306 84.6642 76.6621 83.3125 76.6621V79.6621C83.7675 79.6621 84.0603 79.826 84.2766 80.1035C84.5237 80.4205 84.752 81.003 84.752 81.9219H87.752ZM83.3125 76.6621C81.9665 76.6621 80.8064 77.2631 80.0202 78.2768C79.2581 79.2596 78.9023 80.5488 78.9023 81.9219H81.9023C81.9023 81.0391 82.1325 80.4484 82.3909 80.1153C82.6253 79.8131 82.9203 79.6621 83.3125 79.6621V76.6621ZM78.9023 81.9219C78.9023 83.2986 79.2575 84.5889 80.0211 85.5717C80.809 86.5858 81.9697 87.1816 83.3125 87.1816V84.1816C82.917 84.1816 82.6226 84.0304 82.3901 83.7311C82.1331 83.4003 81.9023 82.8108 81.9023 81.9219H78.9023ZM91.918 85.6758C90.8893 85.6758 90.1323 85.3169 89.6206 84.753C89.0967 84.1757 88.7109 83.2488 88.7109 81.9219H85.7109C85.7109 83.8274 86.2724 85.5275 87.3989 86.769C88.5377 88.0239 90.1342 88.6758 91.918 88.6758V85.6758ZM88.7109 81.9219C88.7109 80.5891 89.0973 79.6631 89.6199 79.0878C90.1305 78.5259 90.8871 78.168 91.918 78.168V75.168C90.1363 75.168 88.5394 75.8159 87.3996 77.0704C86.2719 78.3115 85.7109 80.0125 85.7109 81.9219H88.7109ZM91.918 78.168C92.9425 78.168 93.6967 78.5249 94.2067 79.087C94.7289 79.6626 95.1152 80.5891 95.1152 81.9219H98.1152C98.1152 80.0125 97.5543 78.3121 96.4286 77.0712C95.2906 75.8169 93.6962 75.168 91.918 75.168V78.168ZM95.1152 81.9219C95.1152 83.2488 94.7294 84.1762 94.206 84.7538C93.6949 85.3179 92.9403 85.6758 91.918 85.6758V88.6758C93.6984 88.6758 95.2924 88.0229 96.4292 86.7681C97.5538 85.5269 98.1152 83.8273 98.1152 81.9219H95.1152ZM91.918 87.1816C93.2305 87.1816 94.4171 86.6643 95.2431 85.6414C96.0393 84.6555 96.3867 83.345 96.3867 81.9219H93.3867C93.3867 82.8913 93.1482 83.4607 92.9092 83.7565C92.7001 84.0154 92.4023 84.1816 91.918 84.1816V87.1816ZM96.3867 81.9219C96.3867 80.4988 96.0393 79.1882 95.2431 78.2023C94.4171 77.1795 93.2305 76.6621 91.918 76.6621V79.6621C92.4023 79.6621 92.7001 79.8283 92.9092 80.0872C93.1482 80.3831 93.3867 80.9524 93.3867 81.9219H96.3867ZM91.918 76.6621C90.6062 76.6621 89.4184 77.1788 88.5901 78.1996C87.7906 79.1849 87.4395 80.496 87.4395 81.9219H90.4395C90.4395 80.9552 90.6791 80.3864 90.9197 80.0899C91.1314 79.829 91.4329 79.6621 91.918 79.6621V76.6621ZM87.4395 81.9219C87.4395 83.3478 87.7906 84.6588 88.5901 85.6441C89.4184 86.665 90.6062 87.1816 91.918 87.1816V84.1816C91.4329 84.1816 91.1314 84.0147 90.9197 83.7538C90.6791 83.4574 90.4395 82.8886 90.4395 81.9219H87.4395ZM96.334 87H94.834V88.5H96.334V87ZM96.334 76.8438V75.3438H94.834V76.8438H96.334ZM97.9355 76.8438H99.4355V75.3438H97.9355V76.8438ZM97.9355 78.5039H96.4355V80.0039H97.9355V78.5039ZM97.9746 78.5039V80.0039H99.0953L99.4131 78.9292L97.9746 78.5039ZM101.119 76.7363H102.619V75.4354L101.331 75.2514L101.119 76.7363ZM101.119 78.3867L100.615 79.7993L102.619 80.5152V78.3867H101.119ZM98.0332 87V88.5H99.5332V87H98.0332ZM97.834 87V76.8438H94.834V87H97.834ZM96.334 78.3438H97.9355V75.3438H96.334V78.3438ZM96.4355 76.8438V78.5039H99.4355V76.8438H96.4355ZM97.9355 80.0039H97.9746V77.0039H97.9355V80.0039ZM99.4131 78.9292C99.558 78.4391 99.9133 78.168 100.436 78.168V75.168C98.5749 75.168 97.0553 76.3226 96.5362 78.0786L99.4131 78.9292ZM100.436 78.168C100.591 78.168 100.695 78.1909 100.907 78.2213L101.331 75.2514C101.27 75.2427 100.866 75.168 100.436 75.168V78.168ZM99.6191 76.7363V78.3867H102.619V76.7363H99.6191ZM101.624 76.9741C101.386 76.8894 101.121 76.8504 100.94 76.8295C100.723 76.8045 100.472 76.7891 100.211 76.7891V79.7891C100.36 79.7891 100.495 79.7981 100.596 79.8097C100.646 79.8155 100.679 79.8209 100.694 79.8239C100.701 79.8253 100.699 79.8251 100.69 79.8228C100.683 79.8209 100.655 79.8138 100.615 79.7993L101.624 76.9741ZM100.211 76.7891C99.1737 76.7891 98.2114 77.1726 97.5194 77.9314C96.8397 78.6766 96.5332 79.6581 96.5332 80.6719H99.5332C99.5332 80.2501 99.6564 80.0402 99.736 79.9529C99.8032 79.8792 99.9298 79.7891 100.211 79.7891V76.7891ZM96.5332 80.6719V87H99.5332V80.6719H96.5332ZM98.0332 85.5H96.334V88.5H98.0332V85.5ZM101.053 74.3926V72.8926H99.5527V74.3926H101.053ZM102.752 74.3926H104.252V72.8926H102.752V74.3926ZM102.752 76.8438H101.252V78.3438H102.752V76.8438ZM104.725 76.8438H106.225V75.3438H104.725V76.8438ZM104.725 78.2402V79.7402H106.225V78.2402H104.725ZM102.752 78.2402V76.7402H101.252V78.2402H102.752ZM104.715 85.5742H106.215V83.8035L104.468 84.0946L104.715 85.5742ZM104.715 87L105.062 88.4592L106.215 88.1848V87H104.715ZM101.053 78.2402H102.553V76.7402H101.053V78.2402ZM99.5391 78.2402H98.0391V79.7402H99.5391V78.2402ZM99.5391 76.8438V75.3438H98.0391V76.8438H99.5391ZM101.053 76.8438V78.3438H102.553V76.8438H101.053ZM101.053 75.8926H102.752V72.8926H101.053V75.8926ZM101.252 74.3926V76.8438H104.252V74.3926H101.252ZM102.752 78.3438H104.725V75.3438H102.752V78.3438ZM103.225 76.8438V78.2402H106.225V76.8438H103.225ZM104.725 76.7402H102.752V79.7402H104.725V76.7402ZM101.252 78.2402V84.2754H104.252V78.2402H101.252ZM101.252 84.2754C101.252 84.9089 101.379 85.6992 101.96 86.3208C102.561 86.965 103.359 87.123 104.012 87.123V84.123C103.909 84.123 103.893 84.1098 103.93 84.1224C103.978 84.1387 104.068 84.1827 104.152 84.2734C104.234 84.3613 104.261 84.4387 104.265 84.4521C104.267 84.4579 104.252 84.4086 104.252 84.2754H101.252ZM104.012 87.123C104.266 87.123 104.742 87.0904 104.961 87.0538L104.468 84.0946C104.492 84.0907 104.488 84.0923 104.437 84.0972C104.396 84.1012 104.344 84.1056 104.286 84.1098C104.16 84.1187 104.056 84.123 104.012 84.123V87.123ZM103.215 85.5742V87H106.215V85.5742H103.215ZM104.367 85.5408C104.395 85.5342 104.39 85.5371 104.336 85.5438C104.289 85.5495 104.225 85.5556 104.147 85.561C103.99 85.5719 103.808 85.5781 103.641 85.5781V88.5781C104.043 88.5781 104.669 88.5528 105.062 88.4592L104.367 85.5408ZM103.641 85.5781C103.267 85.5781 103.033 85.5388 102.892 85.4954C102.765 85.4563 102.736 85.421 102.733 85.4187C102.723 85.4079 102.553 85.2169 102.553 84.3633H99.5527C99.5527 85.4628 99.7436 86.6292 100.561 87.4875C101.396 88.3648 102.555 88.5781 103.641 88.5781V85.5781ZM102.553 84.3633V78.2402H99.5527V84.3633H102.553ZM101.053 76.7402H99.5391V79.7402H101.053V76.7402ZM101.039 78.2402V76.8438H98.0391V78.2402H101.039ZM99.5391 78.3438H101.053V75.3438H99.5391V78.3438ZM102.553 76.8438V74.3926H99.5527V76.8438H102.553ZM104.326 87H102.826V88.5H104.326V87ZM104.326 85.7891L103.125 84.8906L102.826 85.2901V85.7891H104.326ZM109.951 78.2695L111.152 79.168L111.451 78.7685V78.2695H109.951ZM109.951 78.2402H111.451V76.7402H109.951V78.2402ZM104.336 78.2402H102.836V79.7402H104.336V78.2402ZM104.336 76.8438V75.3438H102.836V76.8438H104.336ZM111.875 76.8438H113.375V75.3438H111.875V76.8438ZM111.875 78.084L113.077 78.9807L113.375 78.5817V78.084H111.875ZM106.289 85.5742L105.087 84.6775L104.789 85.0765V85.5742H106.289ZM106.289 85.6035H104.789V87.1035H106.289V85.6035ZM111.904 85.6035H113.404V84.1035H111.904V85.6035ZM111.904 87V88.5H113.404V87H111.904ZM105.826 87V85.7891H102.826V87H105.826ZM105.527 86.6876L111.152 79.168L108.75 77.371L103.125 84.8906L105.527 86.6876ZM111.451 78.2695V78.2402H108.451V78.2695H111.451ZM109.951 76.7402H104.336V79.7402H109.951V76.7402ZM105.836 78.2402V76.8438H102.836V78.2402H105.836ZM104.336 78.3438H111.875V75.3438H104.336V78.3438ZM110.375 76.8438V78.084H113.375V76.8438H110.375ZM110.673 77.1872L105.087 84.6775L107.492 86.471L113.077 78.9807L110.673 77.1872ZM104.789 85.5742V85.6035H107.789V85.5742H104.789ZM106.289 87.1035H111.904V84.1035H106.289V87.1035ZM110.404 85.6035V87H113.404V85.6035H110.404ZM111.904 85.5H104.326V88.5H111.904V85.5Z" fill="#FFEE51" mask="url(#path-7-outside-1_1259_3349)"/>
    <defs>
        <filter id="filter0_i_1259_3349" x="15" y="20" width="120" height="120" filterUnits="userSpaceOnUse" color-interpolation-filters="sRGB">
            <feFlood flood-opacity="0" result="BackgroundImageFix"/>
            <feBlend mode="normal" in="SourceGraphic" in2="BackgroundImageFix" result="shape"/>
            <feColorMatrix in="SourceAlpha" type="matrix" values="0 0 0 0 0 0 0 0 0 0 0 0 0 0 0 0 0 0 127 0" result="hardAlpha"/>
            <feOffset dx="4" dy="4"/>
            <feComposite in2="hardAlpha" operator="arithmetic" k2="-1" k3="1"/>
            <feColorMatrix type="matrix" values="0 0 0 0 0 0 0 0 0 0 0 0 0 0 0 0 0 0 0.25 0"/>
            <feBlend mode="normal" in2="shape" result="effect1_innerShadow_1259_3349"/>
        </filter>
        <filter id="filter1_i_1259_3349" x="0" y="5" width="150" height="150" filterUnits="userSpaceOnUse" color-interpolation-filters="sRGB">
            <feFlood flood-opacity="0" result="BackgroundImageFix"/>
            <feBlend mode="normal" in="SourceGraphic" in2="BackgroundImageFix" result="shape"/>
            <feColorMatrix in="SourceAlpha" type="matrix" values="0 0 0 0 0 0 0 0 0 0 0 0 0 0 0 0 0 0 127 0" result="hardAlpha"/>
            <feOffset dx="2" dy="2"/>
            <feComposite in2="hardAlpha" operator="arithmetic" k2="-1" k3="1"/>
            <feColorMatrix type="matrix" values="0 0 0 0 1 0 0 0 0 0.931667 0 0 0 0 0.316667 0 0 0 1 0"/>
            <feBlend mode="normal" in2="shape" result="effect1_innerShadow_1259_3349"/>
        </filter>
        <linearGradient id="paint0_linear_1259_3349" x1="75.5" y1="68" x2="75.5" y2="92" gradientUnits="userSpaceOnUse">
            <stop stop-color="#ECB800"/>
            <stop offset="1" stop-color="#CFA100" stop-opacity="0"/>
        </linearGradient>
    </defs>
</svg>
