<svg width="22" height="22" viewBox="0 0 22 22" fill="none" xmlns="http://www.w3.org/2000/svg">
    <g clip-path="url(#clip0_713_4381)">
        <path d="M4.95312 18.8721C3.05469 18.8721 2.07031 17.8965 2.07031 16.0156V5.31934C2.07031 3.43848 3.05469 2.46289 4.95312 2.46289H17.0469C18.9453 2.46289 19.9297 3.43848 19.9297 5.31934V16.0156C19.9297 17.8877 18.9453 18.8721 17.0469 18.8721H4.95312ZM4.92676 17.1494H17.0557C17.7939 17.1494 18.207 16.7627 18.207 15.998V7.87695C18.207 7.10352 17.7939 6.72559 17.0557 6.72559H4.92676C4.19727 6.72559 3.79297 7.10352 3.79297 7.87695V15.998C3.79297 16.7627 4.19727 17.1494 4.92676 17.1494ZM9.30371 9.77539C8.99609 9.77539 8.89062 9.67871 8.89062 9.3623V8.85254C8.89062 8.53613 8.99609 8.43945 9.30371 8.43945H9.82227C10.1387 8.43945 10.2441 8.53613 10.2441 8.85254V9.3623C10.2441 9.67871 10.1387 9.77539 9.82227 9.77539H9.30371ZM12.1865 9.77539C11.8701 9.77539 11.7646 9.67871 11.7646 9.3623V8.85254C11.7646 8.53613 11.8701 8.43945 12.1865 8.43945H12.6963C13.0127 8.43945 13.1182 8.53613 13.1182 8.85254V9.3623C13.1182 9.67871 13.0127 9.77539 12.6963 9.77539H12.1865ZM15.0605 9.77539C14.7441 9.77539 14.6387 9.67871 14.6387 9.3623V8.85254C14.6387 8.53613 14.7441 8.43945 15.0605 8.43945H15.5703C15.8867 8.43945 15.9922 8.53613 15.9922 8.85254V9.3623C15.9922 9.67871 15.8867 9.77539 15.5703 9.77539H15.0605ZM6.42969 12.6055C6.12207 12.6055 6.0166 12.5088 6.0166 12.1924V11.6826C6.0166 11.3662 6.12207 11.2695 6.42969 11.2695H6.94824C7.26465 11.2695 7.37012 11.3662 7.37012 11.6826V12.1924C7.37012 12.5088 7.26465 12.6055 6.94824 12.6055H6.42969ZM9.30371 12.6055C8.99609 12.6055 8.89062 12.5088 8.89062 12.1924V11.6826C8.89062 11.3662 8.99609 11.2695 9.30371 11.2695H9.82227C10.1387 11.2695 10.2441 11.3662 10.2441 11.6826V12.1924C10.2441 12.5088 10.1387 12.6055 9.82227 12.6055H9.30371ZM12.1865 12.6055C11.8701 12.6055 11.7646 12.5088 11.7646 12.1924V11.6826C11.7646 11.3662 11.8701 11.2695 12.1865 11.2695H12.6963C13.0127 11.2695 13.1182 11.3662 13.1182 11.6826V12.1924C13.1182 12.5088 13.0127 12.6055 12.6963 12.6055H12.1865ZM15.0605 12.6055C14.7441 12.6055 14.6387 12.5088 14.6387 12.1924V11.6826C14.6387 11.3662 14.7441 11.2695 15.0605 11.2695H15.5703C15.8867 11.2695 15.9922 11.3662 15.9922 11.6826V12.1924C15.9922 12.5088 15.8867 12.6055 15.5703 12.6055H15.0605ZM6.42969 15.4355C6.12207 15.4355 6.0166 15.3389 6.0166 15.0225V14.5127C6.0166 14.1963 6.12207 14.0996 6.42969 14.0996H6.94824C7.26465 14.0996 7.37012 14.1963 7.37012 14.5127V15.0225C7.37012 15.3389 7.26465 15.4355 6.94824 15.4355H6.42969ZM9.30371 15.4355C8.99609 15.4355 8.89062 15.3389 8.89062 15.0225V14.5127C8.89062 14.1963 8.99609 14.0996 9.30371 14.0996H9.82227C10.1387 14.0996 10.2441 14.1963 10.2441 14.5127V15.0225C10.2441 15.3389 10.1387 15.4355 9.82227 15.4355H9.30371ZM12.1865 15.4355C11.8701 15.4355 11.7646 15.3389 11.7646 15.0225V14.5127C11.7646 14.1963 11.8701 14.0996 12.1865 14.0996H12.6963C13.0127 14.0996 13.1182 14.1963 13.1182 14.5127V15.0225C13.1182 15.3389 13.0127 15.4355 12.6963 15.4355H12.1865Z" fill="#7A7A7A"/>
    </g>
    <defs>
        <clipPath id="clip0_713_4381">
            <rect width="22" height="22" fill="white"/>
        </clipPath>
    </defs>
</svg>
