<svg width="17" height="18" viewBox="0 0 17 18" fill="none" xmlns="http://www.w3.org/2000/svg">
<path d="M7.05769 3.57143V3.85714H9.94231V3.57143C9.94231 3.19255 9.79035 2.82919 9.51987 2.56128C9.24938 2.29337 8.88252 2.14286 8.5 2.14286C8.11748 2.14286 7.75062 2.29337 7.48013 2.56128C7.20965 2.82919 7.05769 3.19255 7.05769 3.57143ZM5.90385 3.85714V3.57143C5.90385 2.88944 6.17737 2.23539 6.66424 1.75315C7.15112 1.27092 7.81146 1 8.5 1C9.18854 1 9.84888 1.27092 10.3358 1.75315C10.8226 2.23539 11.0962 2.88944 11.0962 3.57143V3.85714H15.4231C15.5761 3.85714 15.7228 3.91735 15.831 4.02451C15.9392 4.13167 16 4.27702 16 4.42857C16 4.58012 15.9392 4.72547 15.831 4.83263C15.7228 4.9398 15.5761 5 15.4231 5H14.5531L13.4615 14.4674C13.381 15.1647 13.0443 15.8082 12.5155 16.2753C11.9867 16.7424 11.3028 17.0003 10.5942 17H6.40577C5.69723 17.0003 5.01335 16.7424 4.48453 16.2753C3.95571 15.8082 3.61895 15.1647 3.53846 14.4674L2.44692 5H1.57692C1.42391 5 1.27717 4.9398 1.16898 4.83263C1.06078 4.72547 1 4.58012 1 4.42857C1 4.27702 1.06078 4.13167 1.16898 4.02451C1.27717 3.91735 1.42391 3.85714 1.57692 3.85714H5.90385ZM4.68538 14.3371C4.73355 14.7554 4.9354 15.1414 5.25246 15.4218C5.56951 15.7021 5.97962 15.857 6.40462 15.8571H10.5948C11.0198 15.857 11.4299 15.7021 11.747 15.4218C12.064 15.1414 12.2659 14.7554 12.314 14.3371L13.3923 5H3.60827L4.68538 14.3371ZM6.76923 7C6.92224 7 7.06898 7.0602 7.17718 7.16737C7.28537 7.27453 7.34615 7.41988 7.34615 7.57143V13.2857C7.34615 13.4373 7.28537 13.5826 7.17718 13.6898C7.06898 13.7969 6.92224 13.8571 6.76923 13.8571C6.61622 13.8571 6.46948 13.7969 6.36128 13.6898C6.25309 13.5826 6.19231 13.4373 6.19231 13.2857V7.57143C6.19231 7.41988 6.25309 7.27453 6.36128 7.16737C6.46948 7.0602 6.61622 7 6.76923 7ZM10.8077 7.57143C10.8077 7.41988 10.7469 7.27453 10.6387 7.16737C10.5305 7.0602 10.3838 7 10.2308 7C10.0778 7 9.93102 7.0602 9.82282 7.16737C9.71463 7.27453 9.65385 7.41988 9.65385 7.57143V13.2857C9.65385 13.4373 9.71463 13.5826 9.82282 13.6898C9.93102 13.7969 10.0778 13.8571 10.2308 13.8571C10.3838 13.8571 10.5305 13.7969 10.6387 13.6898C10.7469 13.5826 10.8077 13.4373 10.8077 13.2857V7.57143Z" fill="#FF5033" stroke="#FF5033" stroke-width="0.4"/>
</svg>
