<svg width="150" height="155" viewBox="0 0 150 155" fill="none" xmlns="http://www.w3.org/2000/svg">
    <circle cx="75" cy="80" r="75" fill="#FFD12E"/>
    <g filter="url(#filter0_i_1259_3401)">
        <circle cx="75" cy="80" r="60" fill="#ECB800"/>
    </g>
    <g filter="url(#filter1_i_1259_3401)">
        <path fill-rule="evenodd" clip-rule="evenodd" d="M75 155C116.421 155 150 121.421 150 80C150 38.5786 116.421 5 75 5C33.5786 5 0 38.5786 0 80C0 121.421 33.5786 155 75 155ZM135 80C135 113.137 108.137 140 75 140C41.8629 140 15 113.137 15 80C15 46.8629 41.8629 20 75 20C108.137 20 135 46.8629 135 80Z" fill="#FFD12E"/>
    </g>
    <mask id="path-4-outside-1_1259_3401" maskUnits="userSpaceOnUse" x="35" y="70" width="81" height="21" fill="black">
        <rect fill="white" x="35" y="70" width="81" height="21"/>
        <path d="M50.1406 89H48.0312V81.3008H38.75V89H36.6406V72.0898H38.75V79.4023H48.0312V72.0898H50.1406V89ZM64.8984 87.1016V89H54.4219V72.0898H64.8984V73.9883H56.5312V79.4141H64.4648V81.2891H56.5312V87.1016H64.8984ZM79.6797 89L77.9805 84.1602H71.2539L69.5547 89H67.3398L73.5742 72.0898H75.6602L81.8945 89H79.6797ZM74.582 74.6562L71.875 82.3672H77.3594L74.6523 74.6562H74.582ZM84.8281 72.0898H90.5117C95.5273 72.0898 98.4922 75.2188 98.4922 80.5391C98.4922 85.8711 95.5391 89 90.5117 89H84.8281V72.0898ZM86.9375 73.9883V87.1016H90.3711C94.2031 87.1016 96.3359 84.7578 96.3359 80.5625C96.3359 76.332 94.2148 73.9883 90.3711 73.9883H86.9375ZM101.309 84.3477H103.43C103.629 86.1758 105.363 87.3828 107.777 87.3828C110.062 87.3828 111.727 86.1758 111.727 84.5117C111.727 83.082 110.73 82.2031 108.457 81.6172L106.289 81.0547C103.172 80.2578 101.789 78.8867 101.789 76.5898C101.789 73.7773 104.25 71.8086 107.766 71.8086C111.129 71.8086 113.566 73.8008 113.66 76.6367H111.551C111.363 74.8203 109.898 73.707 107.695 73.707C105.504 73.707 103.98 74.8438 103.98 76.4961C103.98 77.7734 104.918 78.5352 107.215 79.1328L108.984 79.6016C112.488 80.4805 113.906 81.8281 113.906 84.2539C113.906 87.3477 111.469 89.2812 107.578 89.2812C103.992 89.2812 101.508 87.3359 101.309 84.3477Z"/>
    </mask>
    <path d="M50.1406 89V90.5H51.6406V89H50.1406ZM48.0312 89H46.5312V90.5H48.0312V89ZM48.0312 81.3008H49.5312V79.8008H48.0312V81.3008ZM38.75 81.3008V79.8008H37.25V81.3008H38.75ZM38.75 89V90.5H40.25V89H38.75ZM36.6406 89H35.1406V90.5H36.6406V89ZM36.6406 72.0898V70.5898H35.1406V72.0898H36.6406ZM38.75 72.0898H40.25V70.5898H38.75V72.0898ZM38.75 79.4023H37.25V80.9023H38.75V79.4023ZM48.0312 79.4023V80.9023H49.5312V79.4023H48.0312ZM48.0312 72.0898V70.5898H46.5312V72.0898H48.0312ZM50.1406 72.0898H51.6406V70.5898H50.1406V72.0898ZM50.1406 87.5H48.0312V90.5H50.1406V87.5ZM49.5312 89V81.3008H46.5312V89H49.5312ZM48.0312 79.8008H38.75V82.8008H48.0312V79.8008ZM37.25 81.3008V89H40.25V81.3008H37.25ZM38.75 87.5H36.6406V90.5H38.75V87.5ZM38.1406 89V72.0898H35.1406V89H38.1406ZM36.6406 73.5898H38.75V70.5898H36.6406V73.5898ZM37.25 72.0898V79.4023H40.25V72.0898H37.25ZM38.75 80.9023H48.0312V77.9023H38.75V80.9023ZM49.5312 79.4023V72.0898H46.5312V79.4023H49.5312ZM48.0312 73.5898H50.1406V70.5898H48.0312V73.5898ZM48.6406 72.0898V89H51.6406V72.0898H48.6406ZM64.8984 87.1016H66.3984V85.6016H64.8984V87.1016ZM64.8984 89V90.5H66.3984V89H64.8984ZM54.4219 89H52.9219V90.5H54.4219V89ZM54.4219 72.0898V70.5898H52.9219V72.0898H54.4219ZM64.8984 72.0898H66.3984V70.5898H64.8984V72.0898ZM64.8984 73.9883V75.4883H66.3984V73.9883H64.8984ZM56.5312 73.9883V72.4883H55.0312V73.9883H56.5312ZM56.5312 79.4141H55.0312V80.9141H56.5312V79.4141ZM64.4648 79.4141H65.9648V77.9141H64.4648V79.4141ZM64.4648 81.2891V82.7891H65.9648V81.2891H64.4648ZM56.5312 81.2891V79.7891H55.0312V81.2891H56.5312ZM56.5312 87.1016H55.0312V88.6016H56.5312V87.1016ZM63.3984 87.1016V89H66.3984V87.1016H63.3984ZM64.8984 87.5H54.4219V90.5H64.8984V87.5ZM55.9219 89V72.0898H52.9219V89H55.9219ZM54.4219 73.5898H64.8984V70.5898H54.4219V73.5898ZM63.3984 72.0898V73.9883H66.3984V72.0898H63.3984ZM64.8984 72.4883H56.5312V75.4883H64.8984V72.4883ZM55.0312 73.9883V79.4141H58.0312V73.9883H55.0312ZM56.5312 80.9141H64.4648V77.9141H56.5312V80.9141ZM62.9648 79.4141V81.2891H65.9648V79.4141H62.9648ZM64.4648 79.7891H56.5312V82.7891H64.4648V79.7891ZM55.0312 81.2891V87.1016H58.0312V81.2891H55.0312ZM56.5312 88.6016H64.8984V85.6016H56.5312V88.6016ZM79.6797 89L78.2644 89.4969L78.6166 90.5H79.6797V89ZM77.9805 84.1602L79.3958 83.6633L79.0436 82.6602H77.9805V84.1602ZM71.2539 84.1602V82.6602H70.1908L69.8386 83.6633L71.2539 84.1602ZM69.5547 89V90.5H70.6178L70.97 89.4969L69.5547 89ZM67.3398 89L65.9324 88.4811L65.1881 90.5H67.3398V89ZM73.5742 72.0898V70.5898H72.5285L72.1668 71.571L73.5742 72.0898ZM75.6602 72.0898L77.0676 71.571L76.7058 70.5898H75.6602V72.0898ZM81.8945 89V90.5H84.0462L83.3019 88.4811L81.8945 89ZM74.582 74.6562V73.1562H73.5189L73.1667 74.1594L74.582 74.6562ZM71.875 82.3672L70.4597 81.8703L69.7587 83.8672H71.875V82.3672ZM77.3594 82.3672V83.8672H79.4757L78.7747 81.8703L77.3594 82.3672ZM74.6523 74.6562L76.0677 74.1594L75.7155 73.1562H74.6523V74.6562ZM81.095 88.5031L79.3958 83.6633L76.5652 84.6571L78.2644 89.4969L81.095 88.5031ZM77.9805 82.6602H71.2539V85.6602H77.9805V82.6602ZM69.8386 83.6633L68.1394 88.5031L70.97 89.4969L72.6692 84.6571L69.8386 83.6633ZM69.5547 87.5H67.3398V90.5H69.5547V87.5ZM68.7472 89.5189L74.9816 72.6087L72.1668 71.571L65.9324 88.4811L68.7472 89.5189ZM73.5742 73.5898H75.6602V70.5898H73.5742V73.5898ZM74.2528 72.6087L80.4871 89.5189L83.3019 88.4811L77.0676 71.571L74.2528 72.6087ZM81.8945 87.5H79.6797V90.5H81.8945V87.5ZM73.1667 74.1594L70.4597 81.8703L73.2903 82.8641L75.9973 75.1531L73.1667 74.1594ZM71.875 83.8672H77.3594V80.8672H71.875V83.8672ZM78.7747 81.8703L76.0677 74.1594L73.237 75.1531L75.9441 82.8641L78.7747 81.8703ZM74.6523 73.1562H74.582V76.1562H74.6523V73.1562ZM84.8281 72.0898V70.5898H83.3281V72.0898H84.8281ZM84.8281 89H83.3281V90.5H84.8281V89ZM86.9375 73.9883V72.4883H85.4375V73.9883H86.9375ZM86.9375 87.1016H85.4375V88.6016H86.9375V87.1016ZM84.8281 73.5898H90.5117V70.5898H84.8281V73.5898ZM90.5117 73.5898C92.7008 73.5898 94.2665 74.2642 95.2928 75.3498C96.3297 76.4466 96.9922 78.1502 96.9922 80.5391H99.9922C99.9922 77.6076 99.1723 75.0866 97.4728 73.2889C95.7628 71.48 93.3382 70.5898 90.5117 70.5898V73.5898ZM96.9922 80.5391C96.9922 82.9361 96.3313 84.6424 95.2961 85.7397C94.272 86.8253 92.7074 87.5 90.5117 87.5V90.5C93.3433 90.5 95.769 89.6103 97.4783 87.7984C99.1765 85.9983 99.9922 83.474 99.9922 80.5391H96.9922ZM90.5117 87.5H84.8281V90.5H90.5117V87.5ZM86.3281 89V72.0898H83.3281V89H86.3281ZM85.4375 73.9883V87.1016H88.4375V73.9883H85.4375ZM86.9375 88.6016H90.3711V85.6016H86.9375V88.6016ZM90.3711 88.6016C92.6001 88.6016 94.5367 87.9103 95.899 86.4158C97.2419 84.9427 97.8359 82.8977 97.8359 80.5625H94.8359C94.8359 82.4226 94.3635 83.6471 93.682 84.3947C93.02 85.121 91.9742 85.6016 90.3711 85.6016V88.6016ZM97.8359 80.5625C97.8359 78.2146 97.2473 76.1606 95.9062 74.6814C94.544 73.1791 92.605 72.4883 90.3711 72.4883V75.4883C91.981 75.4883 93.0243 75.9693 93.6837 76.6965C94.364 77.4468 94.8359 78.6799 94.8359 80.5625H97.8359ZM90.3711 72.4883H86.9375V75.4883H90.3711V72.4883ZM101.309 84.3477V82.8477H99.7053L99.8119 84.4474L101.309 84.3477ZM103.43 84.3477L104.921 84.1852L104.775 82.8477H103.43V84.3477ZM108.457 81.6172L108.08 83.0691L108.083 83.0697L108.457 81.6172ZM106.289 81.0547L106.666 79.6028L106.661 79.6014L106.289 81.0547ZM113.66 76.6367V78.1367H115.211L115.159 76.5872L113.66 76.6367ZM111.551 76.6367L110.059 76.7907L110.198 78.1367H111.551V76.6367ZM107.215 79.1328L107.599 77.6828L107.593 77.6812L107.215 79.1328ZM108.984 79.6016L108.6 81.0516L108.61 81.0541L108.619 81.0565L108.984 79.6016ZM101.309 85.8477H103.43V82.8477H101.309V85.8477ZM101.939 84.5102C102.254 87.4024 104.947 88.8828 107.777 88.8828V85.8828C105.779 85.8828 105.004 84.9492 104.921 84.1852L101.939 84.5102ZM107.777 88.8828C109.17 88.8828 110.483 88.5167 111.491 87.7848C112.518 87.0382 113.227 85.8962 113.227 84.5117H110.227C110.227 84.7913 110.103 85.0849 109.727 85.3577C109.331 85.6454 108.67 85.8828 107.777 85.8828V88.8828ZM113.227 84.5117C113.227 83.3856 112.807 82.3929 111.938 81.6246C111.143 80.9213 110.056 80.4803 108.831 80.1647L108.083 83.0697C109.131 83.34 109.679 83.6314 109.95 83.8715C110.148 84.0465 110.227 84.2082 110.227 84.5117H113.227ZM108.834 80.1653L106.666 79.6028L105.912 82.5066L108.08 83.0691L108.834 80.1653ZM106.661 79.6014C105.22 79.2332 104.391 78.7802 103.927 78.3199C103.516 77.9129 103.289 77.4005 103.289 76.5898H100.289C100.289 78.0761 100.753 79.3976 101.814 80.4497C102.82 81.4483 104.241 82.0793 105.918 82.508L106.661 79.6014ZM103.289 76.5898C103.289 75.6602 103.68 74.8883 104.396 74.3158C105.134 73.7254 106.277 73.3086 107.766 73.3086V70.3086C105.738 70.3086 103.893 70.8762 102.522 71.9732C101.128 73.0883 100.289 74.707 100.289 76.5898H103.289ZM107.766 73.3086C110.56 73.3086 112.101 74.8795 112.161 76.6863L115.159 76.5872C115.032 72.7221 111.698 70.3086 107.766 70.3086V73.3086ZM113.66 75.1367H111.551V78.1367H113.66V75.1367ZM113.043 76.4827C112.908 75.1806 112.297 74.064 111.286 73.2964C110.3 72.5469 109.04 72.207 107.695 72.207V75.207C108.554 75.207 109.128 75.4238 109.471 75.685C109.791 75.9282 110.006 76.2764 110.059 76.7907L113.043 76.4827ZM107.695 72.207C106.355 72.207 105.088 72.5533 104.117 73.2816C103.116 74.0316 102.48 75.1589 102.48 76.4961H105.48C105.48 76.1809 105.607 75.9137 105.916 75.6823C106.253 75.4292 106.844 75.207 107.695 75.207V72.207ZM102.48 76.4961C102.48 77.5861 102.918 78.5229 103.789 79.2323C104.566 79.8651 105.63 80.2703 106.837 80.5845L107.593 77.6812C106.503 77.3977 105.95 77.1232 105.684 76.9064C105.512 76.7662 105.48 76.6834 105.48 76.4961H102.48ZM106.831 80.5828L108.6 81.0516L109.368 78.1516L107.599 77.6828L106.831 80.5828ZM108.619 81.0565C110.282 81.4736 111.214 81.9508 111.728 82.4371C112.169 82.8541 112.406 83.3749 112.406 84.2539H115.406C115.406 82.7072 114.935 81.3412 113.79 80.2582C112.719 79.2445 111.19 78.6084 109.349 78.1466L108.619 81.0565ZM112.406 84.2539C112.406 85.3678 111.987 86.1825 111.268 86.7531C110.512 87.3539 109.293 87.7812 107.578 87.7812V90.7812C109.754 90.7812 111.699 90.2418 113.134 89.1024C114.607 87.9328 115.406 86.2337 115.406 84.2539H112.406ZM107.578 87.7812C106.048 87.7812 104.878 87.3668 104.1 86.7556C103.343 86.1605 102.877 85.3208 102.805 84.2479L99.8119 84.4474C99.9396 86.3628 100.815 87.9898 102.247 89.1145C103.657 90.223 105.522 90.7812 107.578 90.7812V87.7812Z" fill="#FFEE51" mask="url(#path-4-outside-1_1259_3401)"/>
    <defs>
        <filter id="filter0_i_1259_3401" x="15" y="20" width="120" height="120" filterUnits="userSpaceOnUse" color-interpolation-filters="sRGB">
            <feFlood flood-opacity="0" result="BackgroundImageFix"/>
            <feBlend mode="normal" in="SourceGraphic" in2="BackgroundImageFix" result="shape"/>
            <feColorMatrix in="SourceAlpha" type="matrix" values="0 0 0 0 0 0 0 0 0 0 0 0 0 0 0 0 0 0 127 0" result="hardAlpha"/>
            <feOffset dx="4" dy="4"/>
            <feComposite in2="hardAlpha" operator="arithmetic" k2="-1" k3="1"/>
            <feColorMatrix type="matrix" values="0 0 0 0 0 0 0 0 0 0 0 0 0 0 0 0 0 0 0.25 0"/>
            <feBlend mode="normal" in2="shape" result="effect1_innerShadow_1259_3401"/>
        </filter>
        <filter id="filter1_i_1259_3401" x="0" y="5" width="150" height="150" filterUnits="userSpaceOnUse" color-interpolation-filters="sRGB">
            <feFlood flood-opacity="0" result="BackgroundImageFix"/>
            <feBlend mode="normal" in="SourceGraphic" in2="BackgroundImageFix" result="shape"/>
            <feColorMatrix in="SourceAlpha" type="matrix" values="0 0 0 0 0 0 0 0 0 0 0 0 0 0 0 0 0 0 127 0" result="hardAlpha"/>
            <feOffset dx="2" dy="2"/>
            <feComposite in2="hardAlpha" operator="arithmetic" k2="-1" k3="1"/>
            <feColorMatrix type="matrix" values="0 0 0 0 1 0 0 0 0 0.931667 0 0 0 0 0.316667 0 0 0 1 0"/>
            <feBlend mode="normal" in2="shape" result="effect1_innerShadow_1259_3401"/>
        </filter>
    </defs>
</svg>
