<svg width="8" height="11" viewBox="0 0 8 11" fill="none" xmlns="http://www.w3.org/2000/svg">
    <path d="M3.85 11C2.87833 11 2.08542 10.8465 1.47125 10.5394C0.857083 10.2323 0.55 9.83583 0.55 9.35C0.55 9.13 0.616458 8.92604 0.749375 8.73812C0.882292 8.55021 1.06792 8.3875 1.30625 8.25L2.1725 9.06125C2.09 9.09792 2.00063 9.13917 1.90438 9.185C1.80813 9.23083 1.7325 9.28583 1.6775 9.35C1.79667 9.49667 2.07167 9.625 2.5025 9.735C2.93333 9.845 3.3825 9.9 3.85 9.9C4.3175 9.9 4.76896 9.845 5.20438 9.735C5.63979 9.625 5.91708 9.49667 6.03625 9.35C5.97208 9.27667 5.88958 9.21708 5.78875 9.17125C5.68792 9.12542 5.59167 9.08417 5.5 9.0475L6.3525 8.2225C6.60917 8.36917 6.80625 8.53646 6.94375 8.72438C7.08125 8.91229 7.15 9.12083 7.15 9.35C7.15 9.83583 6.84292 10.2323 6.22875 10.5394C5.61458 10.8465 4.82167 11 3.85 11ZM3.86375 7.975C4.77125 7.30583 5.45417 6.63438 5.9125 5.96063C6.37083 5.28688 6.6 4.61083 6.6 3.9325C6.6 2.9975 6.30208 2.29167 5.70625 1.815C5.11042 1.33833 4.49167 1.1 3.85 1.1C3.20833 1.1 2.58958 1.33833 1.99375 1.815C1.39792 2.29167 1.1 2.9975 1.1 3.9325C1.1 4.54667 1.32458 5.18604 1.77375 5.85063C2.22292 6.51521 2.91958 7.22333 3.86375 7.975ZM3.85 9.35C2.5575 8.39667 1.59271 7.47083 0.955625 6.5725C0.318542 5.67417 0 4.79417 0 3.9325C0 3.28167 0.116875 2.71104 0.350625 2.22062C0.584375 1.73021 0.884583 1.32 1.25125 0.99C1.61792 0.66 2.03042 0.4125 2.48875 0.2475C2.94708 0.0825 3.40083 0 3.85 0C4.29917 0 4.75292 0.0825 5.21125 0.2475C5.66958 0.4125 6.08208 0.66 6.44875 0.99C6.81542 1.32 7.11563 1.73021 7.34938 2.22062C7.58313 2.71104 7.7 3.28167 7.7 3.9325C7.7 4.79417 7.38146 5.67417 6.74438 6.5725C6.10729 7.47083 5.1425 8.39667 3.85 9.35ZM3.85 4.95C4.1525 4.95 4.41146 4.84229 4.62688 4.62688C4.84229 4.41146 4.95 4.1525 4.95 3.85C4.95 3.5475 4.84229 3.28854 4.62688 3.07313C4.41146 2.85771 4.1525 2.75 3.85 2.75C3.5475 2.75 3.28854 2.85771 3.07313 3.07313C2.85771 3.28854 2.75 3.5475 2.75 3.85C2.75 4.1525 2.85771 4.41146 3.07313 4.62688C3.28854 4.84229 3.5475 4.95 3.85 4.95Z" fill="#575757"/>
</svg>
