<svg width="150" height="155" viewBox="0 0 150 155" fill="none" xmlns="http://www.w3.org/2000/svg">
    <circle cx="75" cy="80" r="75" fill="#FFD12E"/>
    <g filter="url(#filter0_i_1259_3445)">
        <circle cx="75" cy="80" r="60" fill="#ECB800"/>
    </g>
    <g filter="url(#filter1_i_1259_3445)">
        <path fill-rule="evenodd" clip-rule="evenodd" d="M75 155C116.421 155 150 121.421 150 80C150 38.5786 116.421 5 75 5C33.5786 5 0 38.5786 0 80C0 121.421 33.5786 155 75 155ZM135 80C135 113.137 108.137 140 75 140C41.8629 140 15 113.137 15 80C15 46.8629 41.8629 20 75 20C108.137 20 135 46.8629 135 80Z" fill="#FFD12E"/>
    </g>
    <mask id="path-4-outside-1_1259_3445" maskUnits="userSpaceOnUse" x="43" y="70" width="65" height="21" fill="black">
        <rect fill="white" x="43" y="70" width="65" height="21"/>
        <path d="M52.0273 89H49.918V73.9883H44.5859V72.0898H57.3594V73.9883H52.0273V89ZM69.2344 89L67.5352 84.1602H60.8086L59.1094 89H56.8945L63.1289 72.0898H65.2148L71.4492 89H69.2344ZM64.1367 74.6562L61.4297 82.3672H66.9141L64.207 74.6562H64.1367ZM76.4922 89H74.3828V72.0898H76.4922V89ZM91.0391 87.1016V89H80.7734V72.0898H82.8828V87.1016H91.0391ZM93.5508 84.3477H95.6719C95.8711 86.1758 97.6055 87.3828 100.02 87.3828C102.305 87.3828 103.969 86.1758 103.969 84.5117C103.969 83.082 102.973 82.2031 100.699 81.6172L98.5312 81.0547C95.4141 80.2578 94.0312 78.8867 94.0312 76.5898C94.0312 73.7773 96.4922 71.8086 100.008 71.8086C103.371 71.8086 105.809 73.8008 105.902 76.6367H103.793C103.605 74.8203 102.141 73.707 99.9375 73.707C97.7461 73.707 96.2227 74.8438 96.2227 76.4961C96.2227 77.7734 97.1602 78.5352 99.457 79.1328L101.227 79.6016C104.73 80.4805 106.148 81.8281 106.148 84.2539C106.148 87.3477 103.711 89.2812 99.8203 89.2812C96.2344 89.2812 93.75 87.3359 93.5508 84.3477Z"/>
    </mask>
    <path d="M52.0273 89H49.918V73.9883H44.5859V72.0898H57.3594V73.9883H52.0273V89ZM69.2344 89L67.5352 84.1602H60.8086L59.1094 89H56.8945L63.1289 72.0898H65.2148L71.4492 89H69.2344ZM64.1367 74.6562L61.4297 82.3672H66.9141L64.207 74.6562H64.1367ZM76.4922 89H74.3828V72.0898H76.4922V89ZM91.0391 87.1016V89H80.7734V72.0898H82.8828V87.1016H91.0391ZM93.5508 84.3477H95.6719C95.8711 86.1758 97.6055 87.3828 100.02 87.3828C102.305 87.3828 103.969 86.1758 103.969 84.5117C103.969 83.082 102.973 82.2031 100.699 81.6172L98.5312 81.0547C95.4141 80.2578 94.0312 78.8867 94.0312 76.5898C94.0312 73.7773 96.4922 71.8086 100.008 71.8086C103.371 71.8086 105.809 73.8008 105.902 76.6367H103.793C103.605 74.8203 102.141 73.707 99.9375 73.707C97.7461 73.707 96.2227 74.8438 96.2227 76.4961C96.2227 77.7734 97.1602 78.5352 99.457 79.1328L101.227 79.6016C104.73 80.4805 106.148 81.8281 106.148 84.2539C106.148 87.3477 103.711 89.2812 99.8203 89.2812C96.2344 89.2812 93.75 87.3359 93.5508 84.3477Z" fill="url(#paint0_linear_1259_3445)"/>
    <path d="M52.0273 89V90.5H53.5273V89H52.0273ZM49.918 89H48.418V90.5H49.918V89ZM49.918 73.9883H51.418V72.4883H49.918V73.9883ZM44.5859 73.9883H43.0859V75.4883H44.5859V73.9883ZM44.5859 72.0898V70.5898H43.0859V72.0898H44.5859ZM57.3594 72.0898H58.8594V70.5898H57.3594V72.0898ZM57.3594 73.9883V75.4883H58.8594V73.9883H57.3594ZM52.0273 73.9883V72.4883H50.5273V73.9883H52.0273ZM52.0273 87.5H49.918V90.5H52.0273V87.5ZM51.418 89V73.9883H48.418V89H51.418ZM49.918 72.4883H44.5859V75.4883H49.918V72.4883ZM46.0859 73.9883V72.0898H43.0859V73.9883H46.0859ZM44.5859 73.5898H57.3594V70.5898H44.5859V73.5898ZM55.8594 72.0898V73.9883H58.8594V72.0898H55.8594ZM57.3594 72.4883H52.0273V75.4883H57.3594V72.4883ZM50.5273 73.9883V89H53.5273V73.9883H50.5273ZM69.2344 89L67.8191 89.4969L68.1712 90.5H69.2344V89ZM67.5352 84.1602L68.9505 83.6633L68.5983 82.6602H67.5352V84.1602ZM60.8086 84.1602V82.6602H59.7455L59.3933 83.6633L60.8086 84.1602ZM59.1094 89V90.5H60.1725L60.5247 89.4969L59.1094 89ZM56.8945 89L55.4871 88.4811L54.7428 90.5H56.8945V89ZM63.1289 72.0898V70.5898H62.0832L61.7215 71.571L63.1289 72.0898ZM65.2148 72.0898L66.6222 71.571L66.2605 70.5898H65.2148V72.0898ZM71.4492 89V90.5H73.6009L72.8566 88.4811L71.4492 89ZM64.1367 74.6562V73.1562H63.0736L62.7214 74.1594L64.1367 74.6562ZM61.4297 82.3672L60.0144 81.8703L59.3133 83.8672H61.4297V82.3672ZM66.9141 82.3672V83.8672H69.0304L68.3294 81.8703L66.9141 82.3672ZM64.207 74.6562L65.6223 74.1594L65.2702 73.1562H64.207V74.6562ZM70.6497 88.5031L68.9505 83.6633L66.1199 84.6571L67.8191 89.4969L70.6497 88.5031ZM67.5352 82.6602H60.8086V85.6602H67.5352V82.6602ZM59.3933 83.6633L57.6941 88.5031L60.5247 89.4969L62.2239 84.6571L59.3933 83.6633ZM59.1094 87.5H56.8945V90.5H59.1094V87.5ZM58.3019 89.5189L64.5363 72.6087L61.7215 71.571L55.4871 88.4811L58.3019 89.5189ZM63.1289 73.5898H65.2148V70.5898H63.1289V73.5898ZM63.8074 72.6087L70.0418 89.5189L72.8566 88.4811L66.6222 71.571L63.8074 72.6087ZM71.4492 87.5H69.2344V90.5H71.4492V87.5ZM62.7214 74.1594L60.0144 81.8703L62.845 82.8641L65.552 75.1531L62.7214 74.1594ZM61.4297 83.8672H66.9141V80.8672H61.4297V83.8672ZM68.3294 81.8703L65.6223 74.1594L62.7917 75.1531L65.4987 82.8641L68.3294 81.8703ZM64.207 73.1562H64.1367V76.1562H64.207V73.1562ZM76.4922 89V90.5H77.9922V89H76.4922ZM74.3828 89H72.8828V90.5H74.3828V89ZM74.3828 72.0898V70.5898H72.8828V72.0898H74.3828ZM76.4922 72.0898H77.9922V70.5898H76.4922V72.0898ZM76.4922 87.5H74.3828V90.5H76.4922V87.5ZM75.8828 89V72.0898H72.8828V89H75.8828ZM74.3828 73.5898H76.4922V70.5898H74.3828V73.5898ZM74.9922 72.0898V89H77.9922V72.0898H74.9922ZM91.0391 87.1016H92.5391V85.6016H91.0391V87.1016ZM91.0391 89V90.5H92.5391V89H91.0391ZM80.7734 89H79.2734V90.5H80.7734V89ZM80.7734 72.0898V70.5898H79.2734V72.0898H80.7734ZM82.8828 72.0898H84.3828V70.5898H82.8828V72.0898ZM82.8828 87.1016H81.3828V88.6016H82.8828V87.1016ZM89.5391 87.1016V89H92.5391V87.1016H89.5391ZM91.0391 87.5H80.7734V90.5H91.0391V87.5ZM82.2734 89V72.0898H79.2734V89H82.2734ZM80.7734 73.5898H82.8828V70.5898H80.7734V73.5898ZM81.3828 72.0898V87.1016H84.3828V72.0898H81.3828ZM82.8828 88.6016H91.0391V85.6016H82.8828V88.6016ZM93.5508 84.3477V82.8477H91.9475L92.0541 84.4474L93.5508 84.3477ZM95.6719 84.3477L97.163 84.1852L97.0173 82.8477H95.6719V84.3477ZM100.699 81.6172L100.323 83.0691L100.325 83.0697L100.699 81.6172ZM98.5312 81.0547L98.908 79.6028L98.9028 79.6014L98.5312 81.0547ZM105.902 76.6367V78.1367H107.453L107.402 76.5872L105.902 76.6367ZM103.793 76.6367L102.301 76.7907L102.44 78.1367H103.793V76.6367ZM99.457 79.1328L99.8411 77.6828L99.8348 77.6812L99.457 79.1328ZM101.227 79.6016L100.842 81.0516L100.852 81.0541L100.862 81.0565L101.227 79.6016ZM93.5508 85.8477H95.6719V82.8477H93.5508V85.8477ZM94.1807 84.5102C94.4959 87.4024 97.1894 88.8828 100.02 88.8828V85.8828C98.0215 85.8828 97.2463 84.9492 97.163 84.1852L94.1807 84.5102ZM100.02 88.8828C101.412 88.8828 102.725 88.5167 103.733 87.7848C104.76 87.0382 105.469 85.8962 105.469 84.5117H102.469C102.469 84.7913 102.345 85.0849 101.969 85.3577C101.573 85.6454 100.912 85.8828 100.02 85.8828V88.8828ZM105.469 84.5117C105.469 83.3856 105.049 82.3929 104.18 81.6246C103.385 80.9213 102.298 80.4803 101.074 80.1647L100.325 83.0697C101.374 83.34 101.921 83.6314 102.193 83.8715C102.39 84.0465 102.469 84.2082 102.469 84.5117H105.469ZM101.076 80.1653L98.908 79.6028L98.1545 82.5066L100.323 83.0691L101.076 80.1653ZM98.9028 79.6014C97.4623 79.2332 96.6327 78.7802 96.1687 78.3199C95.7585 77.9129 95.5312 77.4005 95.5312 76.5898H92.5312C92.5312 78.0761 92.9954 79.3976 94.0559 80.4497C95.0626 81.4483 96.483 82.0793 98.1597 82.508L98.9028 79.6014ZM95.5312 76.5898C95.5312 75.6602 95.9227 74.8883 96.6382 74.3158C97.3763 73.7254 98.5195 73.3086 100.008 73.3086V70.3086C97.9805 70.3086 96.1354 70.8762 94.7641 71.9732C93.3703 73.0883 92.5312 74.707 92.5312 76.5898H95.5312ZM100.008 73.3086C102.802 73.3086 104.343 74.8795 104.403 76.6863L107.402 76.5872C107.274 72.7221 103.94 70.3086 100.008 70.3086V73.3086ZM105.902 75.1367H103.793V78.1367H105.902V75.1367ZM105.285 76.4827C105.151 75.1806 104.539 74.064 103.529 73.2964C102.542 72.5469 101.282 72.207 99.9375 72.207V75.207C100.796 75.207 101.37 75.4238 101.714 75.685C102.034 75.9282 102.248 76.2764 102.301 76.7907L105.285 76.4827ZM99.9375 72.207C98.5975 72.207 97.3306 72.5533 96.3587 73.2816C95.358 74.0316 94.7227 75.1589 94.7227 76.4961H97.7227C97.7227 76.1809 97.849 75.9137 98.1579 75.6823C98.4956 75.4292 99.0861 75.207 99.9375 75.207V72.207ZM94.7227 76.4961C94.7227 77.5861 95.1603 78.5229 96.0312 79.2323C96.8079 79.8651 97.8718 80.2703 99.0793 80.5845L99.8348 77.6812C98.7454 77.3977 98.1921 77.1232 97.9259 76.9064C97.7538 76.7662 97.7227 76.6834 97.7227 76.4961H94.7227ZM99.0729 80.5828L100.842 81.0516L101.611 78.1516L99.8411 77.6828L99.0729 80.5828ZM100.862 81.0565C102.524 81.4736 103.457 81.9508 103.97 82.4371C104.411 82.8541 104.648 83.3749 104.648 84.2539H107.648C107.648 82.7072 107.177 81.3412 106.033 80.2582C104.961 79.2445 103.433 78.6084 101.592 78.1466L100.862 81.0565ZM104.648 84.2539C104.648 85.3678 104.229 86.1825 103.511 86.7531C102.754 87.3539 101.535 87.7812 99.8203 87.7812V90.7812C101.996 90.7812 103.941 90.2418 105.376 89.1024C106.849 87.9328 107.648 86.2337 107.648 84.2539H104.648ZM99.8203 87.7812C98.2905 87.7812 97.1201 87.3668 96.3423 86.7556C95.585 86.1605 95.119 85.3208 95.0475 84.2479L92.0541 84.4474C92.1818 86.3628 93.0575 87.9898 94.4887 89.1145C95.8994 90.223 97.7642 90.7812 99.8203 90.7812V87.7812Z" fill="#FFEE51" mask="url(#path-4-outside-1_1259_3445)"/>
    <defs>
        <filter id="filter0_i_1259_3445" x="15" y="20" width="120" height="120" filterUnits="userSpaceOnUse" color-interpolation-filters="sRGB">
            <feFlood flood-opacity="0" result="BackgroundImageFix"/>
            <feBlend mode="normal" in="SourceGraphic" in2="BackgroundImageFix" result="shape"/>
            <feColorMatrix in="SourceAlpha" type="matrix" values="0 0 0 0 0 0 0 0 0 0 0 0 0 0 0 0 0 0 127 0" result="hardAlpha"/>
            <feOffset dx="4" dy="4"/>
            <feComposite in2="hardAlpha" operator="arithmetic" k2="-1" k3="1"/>
            <feColorMatrix type="matrix" values="0 0 0 0 0 0 0 0 0 0 0 0 0 0 0 0 0 0 0.25 0"/>
            <feBlend mode="normal" in2="shape" result="effect1_innerShadow_1259_3445"/>
        </filter>
        <filter id="filter1_i_1259_3445" x="0" y="5" width="150" height="150" filterUnits="userSpaceOnUse" color-interpolation-filters="sRGB">
            <feFlood flood-opacity="0" result="BackgroundImageFix"/>
            <feBlend mode="normal" in="SourceGraphic" in2="BackgroundImageFix" result="shape"/>
            <feColorMatrix in="SourceAlpha" type="matrix" values="0 0 0 0 0 0 0 0 0 0 0 0 0 0 0 0 0 0 127 0" result="hardAlpha"/>
            <feOffset dx="2" dy="2"/>
            <feComposite in2="hardAlpha" operator="arithmetic" k2="-1" k3="1"/>
            <feColorMatrix type="matrix" values="0 0 0 0 1 0 0 0 0 0.931667 0 0 0 0 0.316667 0 0 0 1 0"/>
            <feBlend mode="normal" in2="shape" result="effect1_innerShadow_1259_3445"/>
        </filter>
        <linearGradient id="paint0_linear_1259_3445" x1="75.5" y1="66" x2="75.5" y2="95" gradientUnits="userSpaceOnUse">
            <stop stop-color="#ECB800"/>
            <stop offset="1" stop-color="#CFA100" stop-opacity="0"/>
        </linearGradient>
    </defs>
</svg>
