<svg width="22" height="22" viewBox="0 0 22 22" fill="none" xmlns="http://www.w3.org/2000/svg">
    <g clip-path="url(#clip0_713_4373)">
        <path d="M11 19.7334C6.03418 19.7334 1.9209 15.6289 1.9209 10.6543C1.9209 5.68848 6.02539 1.5752 10.9912 1.5752C15.9658 1.5752 20.0791 5.68848 20.0791 10.6543C20.0791 15.6289 15.9658 19.7334 11 19.7334ZM11 17.9492C15.043 17.9492 18.2949 14.6973 18.2949 10.6543C18.2949 6.61133 15.0342 3.36816 10.9912 3.36816C6.94824 3.36816 3.71387 6.61133 3.71387 10.6543C3.71387 14.6973 6.95703 17.9492 11 17.9492ZM6.55273 11.7441C6.15723 11.7441 5.8584 11.4365 5.8584 11.0498C5.8584 10.6543 6.15723 10.3555 6.55273 10.3555H10.2969V5.28418C10.2969 4.89746 10.6045 4.58984 10.9912 4.58984C11.3867 4.58984 11.6943 4.89746 11.6943 5.28418V11.0498C11.6943 11.4365 11.3867 11.7441 10.9912 11.7441H6.55273Z" fill="#7A7A7A"/>
    </g>
    <defs>
        <clipPath id="clip0_713_4373">
            <rect width="22" height="22" fill="white"/>
        </clipPath>
    </defs>
</svg>
